<svg width="145" height="69" viewBox="0 0 145 69" fill="none" xmlns="http://www.w3.org/2000/svg">
<g clip-path="url(#clip0_91_203)">
<path fill-rule="evenodd" clip-rule="evenodd" d="M32.44 59.8002C35.2155 58.0902 37.5483 56.0036 39.5219 53.8307C40.9349 56.6951 43.7706 58.6502 46.7775 58.6502C49.0947 58.6502 51.4118 57.5002 53.0049 55.344C53.5841 57.3565 55.0324 58.6502 57.4943 58.6502C59.3419 58.6502 63.3696 56.7786 67.0217 54.0054L66.618 56.0627C66.4732 56.6377 66.4732 57.0689 66.4732 57.3564C66.618 58.2189 67.1973 58.6502 68.0662 58.6502C69.8041 58.6502 72.2661 57.0689 72.8453 54.4814L73.7143 50.8877C74.728 46.2877 81.5347 39.3877 83.4174 39.3877C83.5622 39.3877 83.8518 39.5314 83.8518 39.8189C83.9093 40.2754 83.579 41.1394 83.0962 42.402C82.3626 44.3207 81.2771 47.1598 80.6657 50.8877C80.3761 52.0377 80.3761 53.1877 80.5209 54.0502C80.8106 56.7814 82.4036 58.6502 85.4449 58.6502C88.0475 58.6502 93.6902 56.445 97.6451 52.0346C97.9433 54.4286 98.4534 56.4648 99.2031 57.7877C99.4927 58.3627 100.217 58.5065 100.941 58.5065C101.81 58.5065 102.968 58.219 104.272 57.5002C107.313 55.919 111.223 52.1815 114.989 46.719C115.568 46.8627 116.002 46.8627 116.437 46.8627C117.94 46.8627 119.619 46.3363 121.178 45.4048C120.53 47.3474 120.278 49.3313 120.492 51.1752C121.071 55.4877 124.692 58.7939 128.602 58.7939C130.774 58.7939 133.092 57.5002 134.685 55.4877C135.264 58.2189 137.002 61.0939 141.346 62.8189C141.636 62.9627 141.926 62.9627 142.215 62.9627C143.084 62.9627 143.664 62.3877 143.519 61.6689C143.519 61.3814 143.374 60.9502 142.939 60.6627C141.926 59.8002 140.767 58.2189 140.477 55.7752C140.333 54.6252 140.333 53.1877 141.057 51.7502C141.926 47.8689 142.071 46.7189 142.071 46.2877C141.926 45.2814 141.202 44.8502 140.333 44.8502C138.595 44.8502 136.133 46.5752 135.554 49.0189C134.54 52.7564 131.933 55.2002 130.195 55.2002C128.023 55.2002 126.864 52.9002 126.575 50.4564C125.85 44.4189 129.616 37.0877 135.264 37.0877C136.857 37.0877 138.74 37.6627 138.884 39.3877C139.062 40.9775 138.092 41.3734 137.351 41.6758C136.886 41.8655 136.511 42.0185 136.567 42.4064C136.712 43.5564 138.595 43.8439 139.898 43.8439C141.057 43.8439 144.822 42.9814 144.243 38.8127C143.808 35.5064 140.188 33.9252 136.133 33.9252C131.292 33.9252 127.172 36.3581 124.367 39.7245C123.979 39.9518 123.569 40.3582 123.099 40.8252C122.23 41.8315 120.492 42.8377 118.32 42.8377C118.03 42.8377 117.451 42.694 117.451 42.694C118.899 39.9627 119.913 37.0877 119.913 34.644C119.913 30.619 117.451 28.6065 114.699 28.6065C111.223 28.6065 107.603 31.6252 107.603 37.6627C107.603 41.2565 109.051 44.1315 111.513 45.7127C108.617 50.3127 104.706 54.194 104.127 54.194C103.927 54.194 103.865 53.9884 103.798 53.7665C103.768 53.667 103.737 53.5643 103.693 53.4752C103.258 51.894 102.824 48.7315 102.824 46.8627C102.824 43.4127 103.403 39.9627 104.706 36.369C104.851 35.9377 104.996 35.5065 104.996 35.219C104.996 34.2127 104.272 33.7815 103.403 33.7815C101.665 33.7815 98.9134 35.794 98.1893 37.9502C97.61 39.9627 97.3204 42.8377 97.3204 46.2877C97.3204 46.9204 97.3307 47.548 97.3516 48.166C93.8954 52.7906 89.6306 54.3377 88.3413 54.3377C86.7483 54.3377 86.4586 52.9002 86.7483 52.3252C87.762 48.1564 89.0654 43.4127 90.224 40.1064C90.8033 38.5252 91.093 37.0877 90.9481 36.2252C90.6585 34.6439 89.6447 33.9252 88.1965 33.9252C84.7208 33.9252 79.2175 37.3752 75.597 42.1189L76.7555 36.9439C76.9004 36.3689 76.9004 35.9377 76.9004 35.6502C76.7555 34.6439 76.1763 34.2127 75.3073 34.2127C71.2523 34.2127 70.5282 36.2252 70.0937 38.2377C70.0099 38.7372 68.8573 44.637 67.9021 49.5143C64.8117 52.3295 61.349 54.194 60.3908 54.194C59.2322 54.194 58.7977 53.3315 58.7977 52.6127C58.7977 52.1163 59.0856 50.7627 59.3576 49.4839C59.5581 48.5409 59.75 47.6383 59.8115 47.1502C59.9563 46.5752 59.9563 46.144 59.9563 45.8565C59.8115 44.994 59.0874 44.5627 58.2185 44.5627C56.4806 44.5627 54.0186 46.2877 53.4393 48.7315C52.5704 52.469 49.9636 54.9127 48.2257 54.9127C46.0534 54.9127 44.8948 52.6127 44.6052 50.3127C43.8811 45.1377 47.212 36.8002 53.2945 36.8002C55.0324 36.8002 56.7702 37.3752 56.9151 39.1002C57.0904 40.754 56.204 41.1429 55.5093 41.4476C55.0567 41.6462 54.6856 41.809 54.7427 42.2627C54.8875 43.4127 56.7702 43.7002 57.9288 43.7002C59.2322 43.7002 62.8528 42.8377 62.2735 38.669C61.839 35.3627 58.3633 33.6377 54.1634 33.6377C44.4229 33.6377 37.9411 43.2007 38.6417 50.7815C36.1681 53.6547 33.6967 55.3825 29.2539 57.6439C26.792 58.9377 23.8955 59.6564 21.2887 59.6564C13.1787 59.6564 9.26847 52.3252 8.54436 46.0002C6.51685 29.9002 20.9991 7.61892 30.9918 7.61892C33.309 7.61892 35.3365 9.63142 35.7709 12.7939C36.3502 17.6814 36.2054 21.1314 31.1366 25.3002C30.5573 25.7314 30.4125 26.4502 30.7022 26.8814C31.1366 27.4564 32.5849 27.6002 35.3365 26.1627C40.8397 23.4314 42.7224 19.2627 42.1431 14.3752C41.5638 8.91267 36.7847 4.45642 30.4125 4.45642C27.2264 4.45642 23.8955 5.31892 20.8542 7.18767C7.67542 15.2377 -0.869087 33.3502 0.723958 47.1502C1.30325 51.6064 3.18594 56.3502 6.66167 59.6564C8.97883 61.8127 13.1787 64.4002 18.2474 64.4002C23.7507 64.4002 28.385 62.3877 32.44 59.8002ZM113.83 40.8252C112.382 39.244 111.223 36.8002 111.223 34.5002C111.223 33.2065 111.658 31.769 112.672 31.769C113.54 31.769 114.699 33.0627 114.699 36.0815C114.699 37.6627 114.409 39.244 113.83 40.8252Z" fill="white"/>
</g>
<defs>
<clipPath id="clip0_91_203">
<rect width="144.822" height="69" fill="white"/>
</clipPath>
</defs>
</svg>
