<svg width="215" height="69" viewBox="0 0 215 69" fill="none" xmlns="http://www.w3.org/2000/svg">
<g clip-path="url(#clip0_91_205)">
<path d="M52.1709 48.1266C52.0772 48.6364 51.8391 49.1091 51.4844 49.4894L40.5008 60.3916C40.4558 60.4811 40.3934 60.5609 40.3172 60.6264C40.2411 60.692 40.1527 60.742 40.0571 60.7737C39.9615 60.8053 39.8605 60.8179 39.76 60.8108C39.6594 60.8037 39.5613 60.7771 39.4711 60.7323C39.381 60.6876 39.3006 60.6257 39.2346 60.5501C39.1685 60.4745 39.1181 60.3867 39.0863 60.2918C39.0544 60.1969 39.0417 60.0967 39.0488 59.9969C39.056 59.8971 39.0828 59.7997 39.1279 59.7102V35.8616L52.1709 22.9152V48.1266Z" fill="white"/>
<path d="M43.2468 14.0561C43.2468 13.8754 43.1745 13.7021 43.0457 13.5743C42.917 13.4465 42.7424 13.3748 42.5603 13.3748C42.3782 13.3748 42.2036 13.4465 42.0749 13.5743C41.9462 13.7021 41.8738 13.8754 41.8738 14.0561L26.085 30.4095V48.8071L39.1279 35.8606L52.1709 22.9142L43.2468 14.0561Z" fill="#FFF7E7"/>
<path d="M0 48.1266C0.0936538 48.6364 0.331784 49.1091 0.686473 49.4894L11.67 60.3916C11.7611 60.5723 11.9207 60.7098 12.1138 60.7737C12.3069 60.8375 12.5177 60.8227 12.6997 60.7323C12.8818 60.642 13.0203 60.4835 13.0846 60.2918C13.149 60.1002 13.134 59.891 13.043 59.7102V35.8616L0 22.9152V48.1266Z" fill="white"/>
<path d="M10.2971 14.0561C10.2971 13.8754 10.2248 13.7021 10.096 13.5743C9.96729 13.4465 9.79268 13.3748 9.61062 13.3748C9.42855 13.3748 9.25395 13.4465 9.12521 13.5743C8.99647 13.7021 8.92414 13.8754 8.92414 14.0561L0 22.9142L13.043 35.8606L26.086 48.8071V30.4095L10.2971 14.0561Z" fill="white"/>
<path d="M68.6477 48.1262V24.2776H74.826V27.0031C75.4982 25.8212 76.5108 24.8654 77.7338 24.2584C78.9569 23.6514 80.3347 23.4208 81.6907 23.5962C82.9881 23.6916 84.2386 24.1182 85.3211 24.8345C86.4035 25.5508 87.2812 26.5325 87.8689 27.6845C90.6148 24.9589 92.6743 23.5962 95.4201 23.5962C100.912 23.5962 104.344 26.3217 104.344 32.4542V48.1262H97.4796V35.1798C97.4796 31.7728 96.7931 30.4101 94.0472 30.4101C91.3013 30.4101 89.9284 31.7728 89.9284 35.1798V48.1262H82.3772V35.1798C82.3772 31.7728 81.6907 30.4101 79.6313 30.4101C77.5719 30.4101 75.5124 31.7728 75.5124 35.1798V48.1262H68.6477ZM112.582 27.0031C114.401 25.3051 116.672 24.1608 119.126 23.7062C121.581 23.2515 124.115 23.5057 126.428 24.4384C128.741 25.3712 130.736 26.9433 132.175 28.9682C133.615 30.993 134.439 33.3854 134.549 35.8612C134.598 37.49 134.32 39.1122 133.731 40.6331C133.142 42.154 132.253 43.5431 131.117 44.7193C129.913 46.0566 128.429 47.1158 126.769 47.8222C125.108 48.5285 123.312 48.8649 121.506 48.8076C119.809 48.8114 118.131 48.4476 116.589 47.7415C115.048 47.0354 113.68 46.004 112.582 44.7193C111.446 43.5431 110.557 42.154 109.968 40.6331C109.378 39.1122 109.1 37.49 109.15 35.8612C109.1 34.2324 109.378 32.6102 109.968 31.0893C110.557 29.5684 111.446 28.1793 112.582 27.0031ZM121.506 41.9937C123.145 41.9937 124.716 41.3476 125.875 40.1975C127.033 39.0475 127.684 37.4876 127.684 35.8612C127.684 34.3251 127.07 32.8519 125.975 31.7658C124.881 30.6796 123.397 30.0694 121.849 30.0694C120.302 30.0694 118.818 30.6796 117.723 31.7658C116.629 32.8519 116.014 34.3251 116.014 35.8612C116.005 37.3762 116.561 38.841 117.575 39.9734C118.589 41.1057 119.989 41.8254 121.506 41.9937V41.9937ZM139.354 48.1262V24.2776H146.219V27.0031C147.592 24.9589 149.651 23.5962 153.084 23.5962C157.889 23.5962 161.322 27.0031 161.322 32.4542V48.1262H154.457V35.1798C154.457 31.7728 153.77 30.4101 151.024 30.4101C148.279 30.4101 146.219 31.7728 146.219 35.1798V48.1262H139.354ZM191.526 27.0031C193.345 25.3051 195.616 24.1608 198.071 23.7062C200.525 23.2515 203.059 23.5057 205.372 24.4384C207.685 25.3712 209.68 26.9433 211.12 28.9682C212.559 30.993 213.383 33.3854 213.493 35.8612C213.543 37.49 213.265 39.1122 212.675 40.6331C212.086 42.154 211.197 43.5431 210.061 44.7193C208.934 45.9704 207.561 46.9789 206.026 47.6821C204.491 48.3853 202.827 48.7684 201.137 48.8076C199.325 48.915 197.513 48.6013 195.845 47.8916C194.176 47.1819 192.698 46.0956 191.526 44.7193C190.39 43.5431 189.501 42.154 188.912 40.6331C188.323 39.1122 188.045 37.49 188.094 35.8612C188.045 34.2324 188.323 32.6102 188.912 31.0893C189.501 29.5684 190.39 28.1793 191.526 27.0031V27.0031ZM201.137 41.9937C202.654 41.8254 204.054 41.1057 205.068 39.9734C206.082 38.841 206.638 37.3762 206.629 35.8612C206.629 34.3251 206.014 32.8519 204.92 31.7658C203.825 30.6796 202.341 30.0694 200.794 30.0694C199.246 30.0694 197.762 30.6796 196.668 31.7658C195.573 32.8519 194.959 34.3251 194.959 35.8612C194.959 37.4876 195.61 39.0475 196.768 40.1975C197.927 41.3476 199.498 41.9937 201.137 41.9937ZM166.813 48.1262V43.3565L176.424 30.4101H166.813V24.2776H184.662V29.7287L175.737 41.9937H184.662V48.1262H166.813Z" fill="white"/>
</g>
<defs>
<clipPath id="clip0_91_205">
<rect width="214.337" height="69" fill="white"/>
</clipPath>
</defs>
</svg>
