<svg width="186" height="69" viewBox="0 0 186 69" fill="none" xmlns="http://www.w3.org/2000/svg">
<g clip-path="url(#clip0_91_200)">
<path fill-rule="evenodd" clip-rule="evenodd" d="M144.231 45.4501C149.008 45.4501 152.894 41.6695 152.894 37.0227C152.894 32.3756 149.008 28.595 144.231 28.595C139.454 28.595 135.567 32.3756 135.567 37.0227C135.567 41.6695 139.454 45.4501 144.231 45.4501ZM152.894 16.0786H153.13H156.999V49.4712H152.894V46.1371C150.526 48.2727 147.471 49.4427 144.231 49.4427C137.191 49.4427 131.463 43.871 131.463 37.0227C131.463 30.1739 137.191 24.6024 144.231 24.6024C147.471 24.6024 150.526 25.7722 152.894 27.908V16.0786ZM59.1111 45.303C63.8882 45.303 67.7747 41.5225 67.7747 36.8755C67.7747 32.2286 63.8882 28.4481 59.1111 28.4481C54.3339 28.4481 50.4474 32.2286 50.4474 36.8755C50.4474 41.5225 54.3339 45.303 59.1111 45.303ZM50.4474 27.7613C52.8162 25.6255 55.8712 24.4555 59.1111 24.4555C66.1513 24.4555 71.879 30.0272 71.879 36.8755C71.879 43.7239 66.1513 49.2956 59.1111 49.2956C55.8712 49.2956 52.8162 48.1259 50.4474 45.9898V57.8194H46.343V24.4268H50.4474V27.7613ZM79.7103 34.9363C80.6341 31.1623 84.076 28.4524 88.002 28.4524C91.8768 28.4524 95.1226 31.1044 95.9877 34.9363H79.7103ZM88.002 24.4268C81.0673 24.4268 75.4257 30.0445 75.4257 36.949C75.4257 43.8538 81.0673 49.4712 88.002 49.4712C91.8854 49.4712 95.4496 48.0236 97.7822 45.4995L98.9939 44.1875L99.1501 44.0182L98.9802 43.8621L96.3455 41.4491L96.1756 41.2931L96.0186 41.4624L94.8068 42.7746C93.2611 44.4472 90.7174 45.4459 88.002 45.4459C84.076 45.4459 80.6343 42.736 79.7103 38.9617H100.252V36.949C100.252 29.9272 94.8711 24.4268 88.002 24.4268ZM181.268 36.9491C181.268 41.6342 177.382 45.4458 172.604 45.4458C167.827 45.4458 163.94 41.6342 163.94 36.9491C163.94 32.2638 167.827 28.4522 172.604 28.4522C177.382 28.4522 181.268 32.2638 181.268 36.9491ZM172.604 24.4268C165.564 24.4268 159.836 30.0442 159.836 36.9491C159.836 43.8538 165.564 49.4712 172.604 49.4712C179.645 49.4712 185.372 43.8538 185.372 36.9491C185.372 30.0442 179.645 24.4268 172.604 24.4268ZM115.502 24.4268C112.651 24.4268 109.934 25.5048 107.795 27.4737V24.4268H103.799V49.4712H107.795V36.6906C107.795 32.1308 111.253 28.4209 115.502 28.4209C119.753 28.4209 123.212 32.1308 123.212 36.6906V49.4712H127.207V36.6906C127.207 29.9284 121.956 24.4268 115.502 24.4268Z" fill="white"/>
<path fill-rule="evenodd" clip-rule="evenodd" d="M0 39.9304H19.3095V58.6712L38.6193 39.9304V21.1897H19.3095L0 39.9304Z" fill="white"/>
</g>
<defs>
<clipPath id="clip0_91_200">
<rect width="185.372" height="69" fill="white"/>
</clipPath>
</defs>
</svg>
