<svg width="166" height="69" viewBox="0 0 166 69" fill="none" xmlns="http://www.w3.org/2000/svg">
<g clip-path="url(#clip0_91_211)">
<path d="M45.3155 44.6829C40.7052 44.6829 37.6531 41.2163 36.8018 39.8736C37.8941 31.379 41.0909 28.6933 45.3155 28.6933C49.4921 28.6933 52.737 31.9412 52.737 36.688C52.737 41.4349 49.4921 44.6829 45.3155 44.6829ZM45.3155 23.4779C37.7978 23.4779 33.5891 28.2404 32.3843 33.1435C31.0189 30.6451 30.0069 27.3036 29.2198 24.1962H18.8266V36.7662C18.8266 41.3257 16.6901 44.6985 12.5136 44.6985C8.33702 44.6985 5.94355 41.3257 5.94355 36.7662L5.99173 24.1962H0V36.7662C0 40.4357 1.22084 43.7617 3.45368 46.135C5.75079 48.5866 8.88319 49.8669 12.5136 49.8669C19.7422 49.8669 24.7863 44.4799 24.7863 36.7662V28.3185C25.5411 31.098 27.3404 36.4382 30.7779 41.1228L27.5653 58.9081H33.6534L35.7737 46.3068C36.4644 46.8689 37.2034 47.3686 37.9905 47.8215C40.0305 49.0707 42.3598 49.7733 44.7694 49.8513C44.7694 49.8513 45.1387 49.8669 45.3316 49.8669C52.7852 49.8669 58.7125 44.2614 58.7125 36.688C58.7125 29.1149 52.769 23.4779 45.3155 23.4779Z" fill="white"/>
<path d="M131.401 26.8834V24.1976H125.521V49.072H131.481V39.3284C131.481 33.3323 132.043 29.0226 140.316 29.5848V23.901C136.461 23.6199 133.457 24.4006 131.401 26.8834Z" fill="white"/>
<path d="M90.0226 24.1981L85.7015 41.5931L81.0912 24.1981H73.5093L68.8829 41.5931L64.5778 24.1981H58.5378L65.1562 49.0883H72.3206L77.3002 31.4122L82.2317 49.0883H89.3961L96.4 24.1981H90.0226Z" fill="white"/>
<path d="M109.524 44.6985C105.283 44.6985 102.103 41.4507 102.103 36.688C102.103 31.9255 105.299 28.6933 109.524 28.6933C113.701 28.6933 116.946 31.9412 116.946 36.688C116.946 41.4349 113.701 44.6985 109.524 44.6985ZM109.524 23.4779C102.022 23.4779 96.1431 29.1305 96.1431 36.688C96.1431 44.2456 102.022 49.8513 109.524 49.8513C116.978 49.8513 122.905 44.2456 122.905 36.688C122.905 29.1305 116.994 23.4779 109.524 23.4779Z" fill="white"/>
<path d="M148.863 36.8448H150.244L158.565 49.0868H165.296L155.722 35.5175C160.365 33.753 163.481 29.1467 163.481 24.1967H157.537C157.537 29.5683 153.184 31.5982 148.863 31.5982V14.375H142.887V49.0868H148.847L148.863 36.8448Z" fill="white"/>
</g>
<defs>
<clipPath id="clip0_91_211">
<rect width="165.097" height="69" fill="white"/>
</clipPath>
</defs>
</svg>
