<svg width="214" height="142" viewBox="0 0 214 142" fill="none" xmlns="http://www.w3.org/2000/svg">
<path d="M198.172 0.00866442C198.24 0.00809491 198.309 0.00752539 198.379 0.00693862C198.453 0.0066867 198.527 0.00643477 198.603 0.00617522C198.68 0.00583733 198.757 0.00549944 198.837 0.00515131C199 0.00452917 199.163 0.00418246 199.327 0.00397545C199.492 0.00371783 199.657 0.00290334 199.823 0.00154414C200.771 -0.00609594 201.694 0.00813282 202.626 0.196049C202.693 0.208782 202.76 0.221514 202.829 0.234632C202.991 0.267113 203.151 0.302623 203.312 0.340539C203.394 0.359623 203.394 0.359623 203.478 0.379093C203.858 0.469719 204.221 0.58054 204.583 0.72955C204.707 0.776553 204.832 0.823476 204.957 0.870334C205.089 0.921898 205.221 0.973772 205.353 1.02594C205.451 1.06411 205.451 1.06411 205.551 1.10305C207.77 2.00515 209.591 3.67738 210.985 5.59033C211.011 5.62628 211.037 5.66223 211.064 5.69927C212.774 8.07845 213.647 10.9442 213.948 13.8299C213.959 13.926 213.959 13.926 213.969 14.0241C214.026 14.6495 213.992 15.2678 213.96 15.8936C213.954 16.0075 213.948 16.1215 213.942 16.2355C213.776 19.5151 213.776 19.5151 213.593 19.6984C213.572 19.7856 213.554 19.8734 213.537 19.9615C213.527 20.0145 213.517 20.0676 213.506 20.1222C213.496 20.178 213.485 20.2338 213.474 20.2912C213.453 20.4012 213.432 20.5111 213.411 20.621C213.402 20.6699 213.393 20.7189 213.383 20.7694C213.356 20.884 213.356 20.884 213.296 20.9433C213.275 21.0813 213.255 21.2196 213.237 21.3582C213.198 21.3582 213.159 21.3582 213.119 21.3582C213.122 21.4194 213.126 21.4805 213.13 21.5435C213.117 21.7959 213.058 21.908 212.941 22.1288C212.912 22.221 212.885 22.3137 212.859 22.4067C212.613 23.2551 212.137 24.072 211.709 24.8417C211.642 24.9636 211.579 25.0865 211.518 25.2113C211.479 25.2113 211.44 25.2113 211.399 25.2113C211.393 25.2436 211.387 25.2759 211.381 25.3092C211.235 25.8065 210.864 26.2582 210.557 26.668C210.47 26.7865 210.389 26.9058 210.31 27.0304C210.263 27.0982 210.263 27.0982 210.214 27.1674C210.175 27.1674 210.136 27.1674 210.095 27.1674C210.095 27.2261 210.095 27.2848 210.095 27.3453C210.056 27.3453 210.017 27.3453 209.977 27.3453C209.953 27.4168 209.953 27.4168 209.929 27.4898C209.905 27.5399 209.882 27.59 209.858 27.6417C209.8 27.6612 209.741 27.6808 209.68 27.7009C209.64 27.7996 209.601 27.8984 209.562 27.9973C209.484 28.0775 209.405 28.1567 209.325 28.2344C209.305 28.2931 209.286 28.3518 209.265 28.4123C209.226 28.4123 209.187 28.4123 209.147 28.4123C209.147 28.4514 209.147 28.4905 209.147 28.5308C209.069 28.6112 208.99 28.69 208.91 28.7679C208.847 28.8486 208.847 28.8486 208.784 28.931C208.729 28.997 208.729 28.997 208.673 29.0643C208.634 29.0643 208.594 29.0643 208.554 29.0643C208.535 29.123 208.515 29.1817 208.495 29.2422C208.456 29.2422 208.417 29.2422 208.376 29.2422C208.376 29.3009 208.376 29.3595 208.376 29.42C208.337 29.42 208.298 29.42 208.258 29.42C208.258 29.4591 208.258 29.4982 208.258 29.5386C208.003 29.8212 208.003 29.8212 207.784 29.8942C207.764 29.9529 207.744 30.0116 207.724 30.0721C207.685 30.0721 207.646 30.0721 207.606 30.0721C207.606 30.1112 207.606 30.1503 207.606 30.1906C207.567 30.1906 207.527 30.1906 207.487 30.1906C207.465 30.2456 207.465 30.2456 207.443 30.3018C207.354 30.4516 207.283 30.4703 207.131 30.5463C207.091 30.6248 207.051 30.7038 207.013 30.7834C206.954 30.803 206.896 30.8225 206.835 30.8427C206.815 30.9014 206.796 30.96 206.776 31.0205C206.737 31.0205 206.698 31.0205 206.657 31.0205C206.657 31.0596 206.657 31.0988 206.657 31.1391C206.562 31.2372 206.562 31.2372 206.435 31.3465C206.394 31.3826 206.352 31.4187 206.31 31.4558C206.183 31.554 206.183 31.554 206.052 31.6151C205.925 31.6683 205.925 31.6683 205.887 31.8504C205.847 31.8504 205.808 31.8504 205.768 31.8504C205.768 31.8895 205.768 31.9286 205.768 31.9689C205.681 32.0583 205.681 32.0583 205.568 32.1542C205.512 32.2021 205.512 32.2021 205.455 32.251C205.353 32.3246 205.353 32.3246 205.235 32.3246C205.235 32.3637 205.235 32.4029 205.235 32.4432C205.029 32.621 205.029 32.621 204.879 32.621C204.879 32.6601 204.879 32.6993 204.879 32.7396C204.674 32.9174 204.674 32.9174 204.523 32.9174C204.504 32.9761 204.484 33.0348 204.464 33.0952C204.366 33.1563 204.267 33.2156 204.168 33.2731C204.138 33.3317 204.138 33.3317 204.108 33.3916C204.05 33.3916 203.991 33.3916 203.93 33.3916C203.93 33.4307 203.93 33.4699 203.93 33.5102C203.839 33.5938 203.839 33.5938 203.708 33.6917C203.66 33.7279 203.612 33.7641 203.563 33.8015C203.508 33.8423 203.453 33.8831 203.397 33.9251C203.334 33.9737 203.27 34.0223 203.207 34.071C203.143 34.12 203.079 34.1689 203.015 34.2178C202.956 34.2636 202.896 34.3093 202.834 34.3565C202.686 34.4586 202.686 34.4586 202.567 34.4586C202.567 34.4977 202.567 34.5369 202.567 34.5772C202.508 34.5967 202.45 34.6163 202.389 34.6364C202.36 34.6951 202.36 34.6951 202.33 34.755C202.271 34.755 202.213 34.755 202.152 34.755C202.152 34.7941 202.152 34.8333 202.152 34.8736C202.055 34.9629 202.055 34.9629 201.926 35.0588C201.884 35.0907 201.842 35.1227 201.799 35.1556C201.678 35.2292 201.678 35.2292 201.5 35.2292C201.5 35.2684 201.5 35.3075 201.5 35.3478C201.24 35.5256 201.24 35.5256 201.085 35.5256C201.085 35.5647 201.085 35.6039 201.085 35.6442C201.026 35.6637 200.968 35.6833 200.907 35.7034C200.878 35.7621 200.878 35.7621 200.848 35.822C200.75 35.8777 200.653 35.9332 200.554 35.9869C200.379 36.0912 200.224 36.2174 200.065 36.3453C199.959 36.4148 199.959 36.4148 199.781 36.4148C199.781 36.4539 199.781 36.493 199.781 36.5333C199.671 36.6227 199.671 36.6227 199.525 36.7186C199.478 36.7505 199.43 36.7825 199.382 36.8154C199.248 36.889 199.248 36.889 199.07 36.889C199.07 36.9281 199.07 36.9673 199.07 37.0076C198.972 37.084 198.972 37.084 198.844 37.1632C198.802 37.1896 198.76 37.216 198.717 37.2433C198.595 37.3039 198.595 37.3039 198.418 37.3039C198.398 37.3626 198.378 37.4213 198.358 37.4818C198.22 37.5686 198.22 37.5686 198.047 37.6559C197.87 37.7483 197.714 37.8311 197.558 37.956C197.358 38.1164 197.136 38.2247 196.91 38.345C196.753 38.4276 196.753 38.4276 196.61 38.5488C196.424 38.6974 196.224 38.7977 196.014 38.9088C195.704 39.0816 195.404 39.2711 195.104 39.4612C195.06 39.4889 195.016 39.5165 194.97 39.5449C194.931 39.57 194.891 39.595 194.85 39.6208C194.742 39.6751 194.742 39.6751 194.565 39.6751C194.565 39.7142 194.565 39.7533 194.565 39.7936C194.53 39.8117 194.495 39.8298 194.459 39.8485C194.091 40.0449 193.734 40.256 193.379 40.4753C193.046 40.6805 192.713 40.8784 192.367 41.0618C192.085 41.2166 191.808 41.3821 191.532 41.5467C191.49 41.5713 191.449 41.5958 191.406 41.621C191.37 41.643 191.333 41.6649 191.295 41.6876C190.978 41.8683 190.978 41.8683 190.771 41.8683C190.771 41.9075 190.771 41.9466 190.771 41.9869C190.686 42.0368 190.601 42.086 190.515 42.1351C190.468 42.1626 190.42 42.1901 190.371 42.2184C190.237 42.2833 190.237 42.2833 190.059 42.2833C190.059 42.3224 190.059 42.3615 190.059 42.4018C189.768 42.5617 189.477 42.7213 189.183 42.8763C188.835 43.06 188.489 43.2433 188.158 43.457C187.968 43.5752 187.77 43.6787 187.573 43.7849C187.337 43.914 187.103 44.0482 186.87 44.1824C186.659 44.3035 186.447 44.421 186.232 44.5358C185.991 44.6662 185.758 44.806 185.525 44.9508C184.568 45.5443 184.568 45.5443 184.191 45.6028C184.191 45.642 184.191 45.6811 184.191 45.7214C184.14 45.7486 184.14 45.7486 184.088 45.7763C183.522 46.0811 182.968 46.4056 182.413 46.7291C182.321 46.7825 182.321 46.7825 182.227 46.837C181.915 47.0189 181.603 47.2009 181.29 47.383C181.24 47.4127 181.189 47.4424 181.136 47.473C181.034 47.5329 180.934 47.5951 180.834 47.6589C180.694 47.7368 180.694 47.7368 180.516 47.7368C180.516 47.776 180.516 47.8151 180.516 47.8554C180.482 47.8728 180.449 47.8902 180.415 47.9082C180.126 48.0625 179.843 48.2227 179.563 48.3931C179.51 48.4252 179.457 48.4574 179.402 48.4905C179.296 48.5558 179.189 48.6214 179.082 48.6874C179.008 48.7329 179.008 48.7329 178.932 48.7793C178.887 48.8068 178.843 48.8344 178.797 48.8627C178.678 48.9224 178.678 48.9224 178.5 48.9224C178.5 48.9615 178.5 49.0006 178.5 49.041C178.374 49.1278 178.374 49.1278 178.199 49.2278C178.137 49.2641 178.074 49.3003 178.009 49.3377C177.909 49.3944 177.909 49.3944 177.807 49.4522C177.678 49.5268 177.548 49.6015 177.418 49.6761C177.331 49.7257 177.331 49.7257 177.242 49.7764C177.132 49.8396 177.023 49.9048 176.916 49.9719C176.781 50.0487 176.781 50.0487 176.663 50.0487C176.663 50.0878 176.663 50.1269 176.663 50.1672C176.576 50.2169 176.49 50.2663 176.403 50.3154C176.355 50.3429 176.307 50.3704 176.257 50.3988C176.129 50.4636 176.129 50.4636 176.011 50.4636C176.011 50.5027 176.011 50.5419 176.011 50.5822C175.958 50.6116 175.906 50.641 175.852 50.6713C175.452 50.8976 175.058 51.1306 174.672 51.3799C174.158 51.7085 174.158 51.7085 173.995 51.7085C173.995 51.7476 173.995 51.7867 173.995 51.827C173.867 51.9113 173.739 51.9884 173.606 52.0641C173.283 52.2525 172.968 52.4476 172.658 52.6569C172.335 52.875 172.009 53.0879 171.68 53.2969C171.417 53.4651 171.163 53.6438 170.912 53.8297C170.794 53.9017 170.794 53.9017 170.616 53.9017C170.616 53.9409 170.616 53.98 170.616 54.0203C170.216 54.2574 170.216 54.2574 170.083 54.2574C170.083 54.2965 170.083 54.3356 170.083 54.376C169.998 54.4438 169.998 54.4438 169.88 54.5172C169.837 54.5436 169.795 54.5699 169.751 54.5971C169.707 54.6244 169.662 54.6516 169.616 54.6798C169.572 54.7075 169.528 54.7352 169.482 54.7638C169.15 54.9687 169.15 54.9687 169.016 54.9687C169.016 55.0079 169.016 55.047 169.016 55.0873C168.904 55.1688 168.904 55.1688 168.745 55.2651C168.471 55.4352 168.199 55.6085 167.93 55.7875C167.893 55.8122 167.856 55.8369 167.818 55.8624C167.511 56.0675 167.211 56.2814 166.915 56.5019C166.75 56.6228 166.613 56.7186 166.408 56.7471C166.408 56.7862 166.408 56.8253 166.408 56.8656C166.329 56.8852 166.251 56.9047 166.17 56.9249C166.17 56.964 166.17 57.0031 166.17 57.0435C166.067 57.1166 166.067 57.1166 165.915 57.2065C165.529 57.444 165.169 57.7115 164.807 57.9829C164.536 58.185 164.262 58.3774 163.98 58.5631C163.819 58.6707 163.664 58.786 163.51 58.9033C163.291 59.0695 163.07 59.2345 162.847 59.396C161.948 60.0478 161.054 60.708 160.175 61.3868C159.962 61.5511 159.747 61.7134 159.531 61.8746C158.951 62.309 158.379 62.7524 157.814 63.207C157.715 63.2867 157.615 63.3662 157.516 63.4455C157.471 63.4816 157.426 63.5177 157.379 63.555C157.279 63.6233 157.279 63.6233 157.16 63.6233C157.16 63.6624 157.16 63.7015 157.16 63.7418C157.078 63.8168 157.078 63.8168 156.963 63.9007C156.901 63.9467 156.901 63.9467 156.838 63.9935C156.794 64.0254 156.75 64.0573 156.705 64.0901C156.619 64.1529 156.534 64.2157 156.448 64.2786C156.407 64.3084 156.367 64.3381 156.325 64.3688C156.228 64.4413 156.134 64.5175 156.04 64.5944C155.915 64.6903 155.915 64.6903 155.797 64.6903C155.777 64.749 155.758 64.8077 155.738 64.8681C155.626 64.9623 155.515 65.049 155.397 65.1349C155.114 65.3465 154.839 65.5644 154.571 65.7943C154.335 65.9953 154.099 66.1953 153.859 66.3908C153.813 66.4289 153.766 66.4671 153.718 66.5064C153.604 66.5872 153.604 66.5872 153.485 66.5872C153.485 66.6263 153.485 66.6654 153.485 66.7057C153.382 66.7981 153.382 66.7981 153.237 66.9095C152.994 67.0988 152.756 67.292 152.522 67.4912C152.49 67.5183 152.458 67.5454 152.425 67.5734C152.142 67.8139 151.86 68.0554 151.579 68.2975C151.515 68.3527 151.45 68.4078 151.386 68.4627C151.321 68.5181 151.257 68.5739 151.193 68.63C150.949 68.8397 150.949 68.8397 150.818 68.8397C150.798 68.8984 150.778 68.9571 150.758 69.0176C150.668 69.0991 150.573 69.1762 150.477 69.251C150.21 69.4638 149.956 69.6848 149.706 69.9178C149.641 69.9783 149.576 70.0387 149.511 70.0992C149.481 70.1273 149.451 70.1554 149.42 70.1843C148.952 70.6181 148.952 70.6181 148.802 70.6181C148.802 70.6572 148.802 70.6963 148.802 70.7366C148.715 70.826 148.715 70.826 148.602 70.9219C148.546 70.9698 148.546 70.9698 148.49 71.0187C148.387 71.0923 148.387 71.0923 148.269 71.0923C148.249 71.151 148.229 71.2097 148.209 71.2701C148.106 71.3762 148.106 71.3762 147.98 71.485C147.938 71.5212 147.897 71.5574 147.854 71.5948C147.735 71.6851 147.735 71.6851 147.557 71.7443C147.557 71.7835 147.557 71.8226 147.557 71.8629C147.46 71.9632 147.46 71.9632 147.331 72.0741C147.289 72.1108 147.247 72.1476 147.204 72.1855C147.083 72.2778 147.083 72.2778 146.905 72.3371C146.886 72.3958 146.866 72.4545 146.846 72.515C146.745 72.6148 146.745 72.6148 146.62 72.7187C146.484 72.8339 146.356 72.9464 146.231 73.0744C146.135 73.167 146.135 73.167 146.016 73.167C146.016 73.2061 146.016 73.2453 146.016 73.2856C145.931 73.3692 145.931 73.3692 145.812 73.4671C145.566 73.6751 145.343 73.8994 145.12 74.1319C145.008 74.234 145.008 74.234 144.89 74.234C144.89 74.2731 144.89 74.3123 144.89 74.3526C144.851 74.3526 144.812 74.3526 144.771 74.3526C144.756 74.3879 144.741 74.4231 144.725 74.4595C144.646 74.6013 144.57 74.6735 144.445 74.7757C144.144 75.0305 143.868 75.3067 143.59 75.5856C143.535 75.64 143.481 75.6944 143.425 75.7504C143.31 75.8646 143.196 75.9788 143.082 76.0931C142.936 76.2397 142.789 76.386 142.643 76.5322C142.503 76.6722 142.363 76.8125 142.222 76.9527C142.17 77.0052 142.117 77.0578 142.063 77.1119C142.015 77.1604 141.966 77.2089 141.917 77.2589C141.874 77.3016 141.831 77.3443 141.787 77.3883C141.685 77.4889 141.685 77.4889 141.629 77.6128C141.59 77.6128 141.551 77.6128 141.511 77.6128C141.511 77.652 141.511 77.6911 141.511 77.7314C141.378 77.8789 141.265 78.0035 141.085 78.0908C140.944 78.1639 140.929 78.2421 140.859 78.3835C140.802 78.4594 140.743 78.5336 140.681 78.6058C140.65 78.6421 140.62 78.6785 140.588 78.716C140.503 78.7984 140.503 78.7984 140.385 78.7984C140.385 78.8375 140.385 78.8766 140.385 78.917C140.317 78.987 140.248 79.0567 140.177 79.124C140.045 79.2567 139.929 79.4023 139.812 79.5479C139.772 79.5877 139.772 79.5877 139.733 79.6283C139.693 79.6283 139.654 79.6283 139.614 79.6283C139.614 79.6674 139.614 79.7065 139.614 79.7468C139.575 79.7468 139.536 79.7468 139.495 79.7468C139.476 79.7943 139.476 79.7943 139.457 79.8427C139.347 80.0367 139.197 80.1871 139.043 80.347C138.772 80.6344 138.52 80.9287 138.282 81.2448C138.252 81.2786 138.222 81.3125 138.191 81.3473C138.152 81.3473 138.113 81.3473 138.073 81.3473C138.056 81.3828 138.039 81.4183 138.021 81.4548C137.954 81.5845 137.954 81.5845 137.836 81.7623C137.797 81.7623 137.757 81.7623 137.717 81.7623C137.678 81.8601 137.639 81.9579 137.599 82.0587C137.559 82.0587 137.52 82.0587 137.48 82.0587C137.456 82.1096 137.456 82.1096 137.432 82.1615C137.359 82.3005 137.277 82.4217 137.184 82.5477C137.153 82.5896 137.123 82.6315 137.091 82.6746C137.063 82.7061 137.035 82.7376 137.006 82.77C136.967 82.77 136.928 82.77 136.887 82.77C136.871 82.8046 136.855 82.8392 136.839 82.8748C136.768 83.0076 136.691 83.1121 136.595 83.2273C136.561 83.268 136.528 83.3087 136.493 83.3506C136.458 83.3925 136.423 83.4345 136.387 83.4776C136.122 83.7928 136.122 83.7928 135.892 84.1336C135.857 84.1922 135.857 84.1922 135.82 84.252C135.781 84.252 135.742 84.252 135.702 84.252C135.686 84.2957 135.671 84.3394 135.655 84.3844C135.581 84.5522 135.502 84.6614 135.383 84.8003C134.907 85.3805 134.489 86.0075 134.072 86.6305C134.048 86.6655 134.025 86.7005 134 86.7366C133.845 86.97 133.705 87.2086 133.568 87.453C133.529 87.453 133.489 87.453 133.449 87.453C133.433 87.496 133.416 87.539 133.399 87.5833C133.334 87.7407 133.261 87.8856 133.179 88.0346C133.147 88.0923 133.115 88.15 133.083 88.2094C133.009 88.3414 132.933 88.4724 132.856 88.6026C132.024 90.017 131.093 91.8502 131.451 93.5347C131.513 93.7439 131.615 93.9075 131.73 94.0921C131.73 94.1312 131.73 94.1703 131.73 94.2106C131.769 94.2106 131.808 94.2106 131.849 94.2106C131.916 94.2782 131.984 94.346 132.05 94.4146C132.605 94.9559 133.222 95.2654 133.997 95.2924C134.579 95.2838 135 95.0779 135.49 94.7752C135.642 94.6849 135.642 94.6849 135.82 94.6256C135.82 94.5865 135.82 94.5473 135.82 94.507C135.89 94.485 135.89 94.485 135.961 94.4626C136.136 94.3793 136.17 94.3288 136.235 94.1514C136.274 94.1514 136.313 94.1514 136.354 94.1514C136.393 94.0731 136.432 93.9949 136.472 93.9142C136.511 93.9142 136.551 93.9142 136.591 93.9142C136.604 93.8714 136.618 93.8287 136.632 93.7846C136.725 93.5844 136.849 93.4766 137.006 93.3215C137.401 92.8494 137.75 92.3404 138.102 91.8358C138.144 91.7758 138.186 91.7159 138.229 91.6541C138.269 91.5972 138.308 91.5404 138.349 91.4818C138.402 91.4053 138.402 91.4053 138.456 91.3273C138.536 91.2044 138.603 91.083 138.666 90.9504C138.705 90.9504 138.744 90.9504 138.784 90.9504C138.823 90.833 138.862 90.7156 138.903 90.5947C138.942 90.5947 138.981 90.5947 139.021 90.5947C139.038 90.525 139.038 90.525 139.055 90.4539C139.151 90.212 139.279 90.0334 139.431 89.8236C139.569 89.6257 139.695 89.4224 139.822 89.2165C140.108 88.7512 140.414 88.3006 140.725 87.8509C140.761 87.7985 140.797 87.746 140.834 87.6919C140.869 87.6417 140.903 87.5915 140.939 87.5398C141.032 87.4013 141.118 87.2605 141.204 87.1177C141.247 87.0523 141.289 86.9869 141.333 86.9195C141.372 86.9195 141.411 86.9195 141.452 86.9195C141.466 86.8775 141.481 86.8356 141.496 86.7923C141.58 86.6013 141.686 86.4525 141.811 86.2859C141.971 86.0775 141.971 86.0775 142.104 85.8525C142.143 85.8525 142.182 85.8525 142.222 85.8525C142.252 85.7351 142.252 85.7351 142.282 85.6153C142.321 85.6153 142.36 85.6153 142.4 85.6153C142.429 85.498 142.429 85.498 142.459 85.3782C142.498 85.3782 142.538 85.3782 142.578 85.3782C142.607 85.2609 142.607 85.2609 142.637 85.1411C142.676 85.1411 142.715 85.1411 142.756 85.1411C142.774 85.1044 142.792 85.0678 142.811 85.03C142.852 84.9485 142.893 84.867 142.934 84.7855C142.973 84.7855 143.012 84.7855 143.052 84.7855C143.081 84.6681 143.081 84.6681 143.111 84.5483C143.151 84.5483 143.19 84.5483 143.23 84.5483C143.248 84.5117 143.267 84.475 143.286 84.4372C143.326 84.3557 143.367 84.2742 143.408 84.1927C143.447 84.1927 143.486 84.1927 143.526 84.1927C143.55 84.1413 143.55 84.1413 143.575 84.0889C143.647 83.9523 143.722 83.8358 143.823 83.7185C143.862 83.7185 143.901 83.7185 143.941 83.7185C143.941 83.6793 143.941 83.6402 143.941 83.5999C143.98 83.5999 144.02 83.5999 144.06 83.5999C144.084 83.5486 144.084 83.5486 144.108 83.4962C144.18 83.3595 144.256 83.243 144.356 83.1257C144.395 83.1257 144.435 83.1257 144.475 83.1257C144.475 83.0866 144.475 83.0474 144.475 83.0071C144.514 83.0071 144.553 83.0071 144.593 83.0071C144.608 82.9704 144.623 82.9338 144.638 82.896C144.726 82.7461 144.797 82.7274 144.949 82.6515C144.989 82.5725 145.028 82.4934 145.068 82.4143C145.296 82.15 145.566 81.9221 145.83 81.6951C145.917 81.6191 146.003 81.5415 146.087 81.4627C146.386 81.1851 146.696 80.9333 147.024 80.6916C147.063 80.6626 147.102 80.6336 147.142 80.6037C147.424 80.3989 147.424 80.3989 147.557 80.3989C147.557 80.3598 147.557 80.3207 147.557 80.2803C147.673 80.1947 147.673 80.1947 147.835 80.0951C147.895 80.0582 147.955 80.0213 148.016 79.9833C148.08 79.9444 148.144 79.9055 148.209 79.8654C148.271 79.8271 148.332 79.7888 148.395 79.7494C148.589 79.6285 148.784 79.5096 148.98 79.3912C149.041 79.3534 149.102 79.3155 149.165 79.2766C152.077 77.5354 155.623 77.0535 158.939 76.7237C158.995 76.718 159.051 76.7124 159.109 76.7066C162.425 76.3814 165.725 76.4631 169.038 76.783C169.116 76.7904 169.116 76.7904 169.195 76.798C169.81 76.8572 170.421 76.9267 171.031 77.0201C171.148 77.0374 171.266 77.0548 171.383 77.0721C171.588 77.1026 171.793 77.1335 171.998 77.1646C172.062 77.1743 172.062 77.1743 172.128 77.1842C172.752 77.2787 173.375 77.3758 173.995 77.4943C174.033 77.5016 174.072 77.5089 174.111 77.5165C174.611 77.6142 175.108 77.7245 175.606 77.8334C175.764 77.8679 175.921 77.9022 176.079 77.9364C176.747 78.0823 177.411 78.2404 178.074 78.4096C178.191 78.4394 178.307 78.4689 178.424 78.4983C179.502 78.7711 180.581 79.0526 181.635 79.4089C181.835 79.4749 182.036 79.533 182.238 79.5912C182.585 79.6923 182.931 79.7954 183.276 79.9025C183.349 79.9252 183.423 79.948 183.498 79.9715C183.685 80.0327 183.868 80.0995 184.051 80.1692C184.365 80.2853 184.682 80.3907 184.999 80.4989C185.74 80.7535 186.479 81.0147 187.214 81.2881C187.263 81.3062 187.312 81.3243 187.362 81.343C188.58 81.7979 189.798 82.2688 190.985 82.7992C191.191 82.8908 191.397 82.9788 191.604 83.0664C192.003 83.2368 192.396 83.4186 192.787 83.6038C192.909 83.661 193.03 83.7177 193.152 83.7743C193.689 84.0248 194.22 84.284 194.749 84.5512C194.944 84.6496 195.14 84.7471 195.335 84.8447C195.335 84.8839 195.335 84.923 195.335 84.9633C195.388 84.9694 195.44 84.9755 195.494 84.9818C195.7 85.0244 195.811 85.0904 195.987 85.2004C196.091 85.2578 196.194 85.3146 196.298 85.3708C196.552 85.5083 196.804 85.6475 197.056 85.7886C197.173 85.8523 197.291 85.9123 197.41 85.971C197.41 86.0101 197.41 86.0493 197.41 86.0896C197.444 86.0968 197.478 86.1041 197.513 86.1116C197.653 86.1505 197.77 86.2044 197.899 86.2711C197.962 86.3033 197.962 86.3033 198.026 86.3362C198.057 86.3526 198.089 86.369 198.121 86.386C198.121 86.4251 198.121 86.4642 198.121 86.5045C198.173 86.5155 198.173 86.5155 198.225 86.5267C198.36 86.5642 198.472 86.6165 198.595 86.6823C198.595 86.7215 198.595 86.7606 198.595 86.8009C198.753 86.8646 198.909 86.9251 199.07 86.9787C199.089 87.0179 199.109 87.057 199.129 87.0973C199.342 87.2258 199.557 87.3453 199.781 87.453C199.781 87.4921 199.781 87.5312 199.781 87.5715C199.859 87.5911 199.937 87.6106 200.018 87.6308C200.018 87.6699 200.018 87.709 200.018 87.7494C200.061 87.7651 200.105 87.7808 200.149 87.7969C200.425 87.9154 200.652 88.101 200.892 88.2791C200.944 88.3167 200.996 88.3543 201.05 88.393C201.099 88.4293 201.148 88.4656 201.199 88.5031C201.267 88.5527 201.267 88.5527 201.335 88.6033C201.441 88.6978 201.441 88.6978 201.5 88.8756C201.579 88.8973 201.658 88.9168 201.737 88.9349C201.871 89.0201 201.871 89.0201 201.974 89.1127C201.974 89.1519 201.974 89.191 201.974 89.2313C202.033 89.2313 202.092 89.2313 202.152 89.2313C202.311 89.3721 202.311 89.3721 202.449 89.5277C202.449 89.5668 202.449 89.6059 202.449 89.6462C202.5 89.6536 202.5 89.6536 202.552 89.6611C202.724 89.7184 202.806 89.8055 202.923 89.9426C202.923 89.9818 202.923 90.0209 202.923 90.0612C202.961 90.0771 202.999 90.093 203.038 90.1093C203.16 90.1797 203.16 90.1797 203.219 90.3576C203.278 90.3576 203.336 90.3576 203.397 90.3576C203.468 90.4408 203.539 90.5246 203.606 90.6114C203.729 90.755 203.873 90.8656 204.022 90.9805C204.124 91.0854 204.144 91.1633 204.168 91.306C204.226 91.306 204.285 91.306 204.345 91.306C204.359 91.339 204.372 91.372 204.386 91.406C204.518 91.639 204.723 91.8043 204.916 91.9877C205.05 92.1292 205.137 92.2644 205.235 92.4323C205.293 92.4928 205.352 92.5521 205.412 92.6101C205.57 92.791 205.651 92.9142 205.709 93.1436C205.767 93.1632 205.826 93.1828 205.887 93.2029C205.928 93.2809 205.968 93.3601 206.005 93.44C206.036 93.4706 206.066 93.5011 206.098 93.5326C206.183 93.6179 206.183 93.6179 206.242 93.7957C206.286 93.836 206.286 93.836 206.331 93.8772C206.446 94.0013 206.457 94.1052 206.479 94.2699C206.538 94.2895 206.597 94.309 206.657 94.3292C206.755 94.4835 206.776 94.5581 206.776 94.7441C206.834 94.7637 206.893 94.7833 206.954 94.8034C206.993 94.9417 207.033 95.08 207.072 95.2184C207.131 95.2379 207.19 95.2575 207.25 95.2776C207.302 95.3851 207.302 95.3851 207.343 95.5147C207.381 95.6419 207.381 95.6419 207.428 95.7519C207.467 95.7714 207.506 95.791 207.546 95.8111C207.602 95.9278 207.602 95.9278 207.658 96.0779C207.754 96.3307 207.859 96.5778 207.971 96.8242C208.021 96.9374 208.021 96.9374 208.08 97.1152C208.119 97.1348 208.158 97.1544 208.198 97.1745C208.266 97.371 208.323 97.5681 208.38 97.7679C208.392 97.8096 208.404 97.8514 208.417 97.8944C208.428 97.9325 208.438 97.9707 208.449 98.0099C208.49 98.1273 208.49 98.1273 208.578 98.2206C208.724 98.4361 208.775 98.6742 208.842 98.9239C208.865 99.0083 208.865 99.0083 208.889 99.0944C208.94 99.278 208.99 99.4618 209.039 99.6457C209.074 99.7721 209.109 99.8985 209.143 100.025C209.345 100.768 209.542 101.513 209.725 102.261C209.735 102.301 209.744 102.34 209.754 102.381C209.862 102.818 209.947 103.245 209.977 103.695C209.982 103.752 209.986 103.81 209.991 103.869C209.995 103.915 209.999 103.962 210.003 104.01C210.024 104.248 210.056 104.482 210.095 104.718C210.174 105.212 210.217 105.714 210.212 106.215C210.209 106.421 210.209 106.421 210.243 106.621C210.448 108.079 210.25 109.778 209.997 111.221C209.965 111.41 209.944 111.6 209.921 111.79C209.851 112.319 209.737 112.837 209.621 113.357C209.607 113.42 209.594 113.483 209.579 113.548C209.535 113.751 209.489 113.954 209.443 114.158C209.429 114.221 209.415 114.285 209.401 114.35C209.318 114.715 209.214 115.061 209.082 115.41C209.02 115.572 208.969 115.736 208.921 115.903C208.618 116.892 208.244 117.823 207.803 118.759C207.73 118.916 207.66 119.074 207.591 119.233C207.022 120.543 206.304 121.761 205.531 122.96C205.507 123 205.482 123.039 205.457 123.079C205.406 123.16 205.35 123.239 205.294 123.316C205.255 123.316 205.216 123.316 205.175 123.316C205.159 123.35 205.143 123.385 205.126 123.42C205.058 123.551 204.982 123.665 204.895 123.785C204.864 123.828 204.832 123.872 204.799 123.917C204.766 123.963 204.732 124.01 204.697 124.057C204.663 124.104 204.629 124.151 204.593 124.2C204.524 124.295 204.454 124.39 204.384 124.486C204.296 124.606 204.209 124.727 204.123 124.848C204.076 124.913 204.029 124.978 203.982 125.043C203.942 125.099 203.901 125.155 203.86 125.213C203.824 125.252 203.789 125.291 203.753 125.331C203.694 125.331 203.635 125.331 203.575 125.331C203.56 125.365 203.545 125.398 203.53 125.432C203.385 125.701 203.175 125.926 202.982 126.161C202.955 126.196 202.928 126.231 202.9 126.266C202.743 126.464 202.57 126.617 202.378 126.777C202.266 126.877 202.171 126.983 202.074 127.099C201.869 127.341 201.64 127.548 201.401 127.757C201.261 127.879 201.261 127.879 201.134 128.015C201.026 128.118 201.026 128.118 200.907 128.118C200.878 128.206 200.878 128.206 200.848 128.295C200.704 128.448 200.535 128.577 200.374 128.71C200.339 128.739 200.304 128.768 200.268 128.798C199.85 129.144 199.434 129.488 198.984 129.793C198.792 129.924 198.603 130.06 198.414 130.196C198.141 130.392 197.866 130.583 197.585 130.767C197.472 130.842 197.363 130.92 197.254 131C197.058 131.141 196.852 131.262 196.639 131.378C196.589 131.405 196.539 131.433 196.487 131.461C196.375 131.522 196.264 131.583 196.152 131.644C195.961 131.748 195.772 131.854 195.582 131.96C195.423 132.047 195.261 132.127 195.098 132.208C195.021 132.246 194.945 132.284 194.868 132.323C194.379 132.567 194.379 132.567 194.261 132.626C194.161 132.676 194.062 132.726 193.963 132.777C193.797 132.858 193.629 132.931 193.457 133.001C193.218 133.099 192.983 133.202 192.749 133.312C192.499 133.427 192.251 133.514 191.985 133.585C191.83 133.63 191.83 133.63 191.66 133.71C191.34 133.85 191.004 133.944 190.671 134.045C190.605 134.066 190.539 134.086 190.472 134.107C190.041 134.239 189.609 134.356 189.17 134.46C189.09 134.479 189.09 134.479 189.009 134.499C188.132 134.706 187.252 134.913 186.352 134.979C186.207 134.994 186.071 135.021 185.929 135.053C185.55 135.134 185.166 135.145 184.781 135.165C184.615 135.174 184.449 135.188 184.284 135.201C184.154 135.211 184.024 135.221 183.895 135.231C183.821 135.236 183.748 135.242 183.673 135.248C182.747 135.313 181.806 135.336 180.882 135.248C180.693 135.231 180.504 135.221 180.315 135.212C179.531 135.174 178.755 135.09 177.98 134.964C177.764 134.931 177.547 134.903 177.33 134.875C177.048 134.838 176.774 134.793 176.498 134.727C176.34 134.692 176.182 134.667 176.022 134.642C175.72 134.593 175.429 134.525 175.134 134.448C174.92 134.395 174.705 134.353 174.488 134.312C174.2 134.256 173.929 134.189 173.654 134.09C173.244 133.952 172.815 133.864 172.391 133.78C172.263 133.745 172.157 133.69 172.039 133.63C171.923 133.601 171.807 133.573 171.691 133.545C171.569 133.513 171.456 133.473 171.339 133.427C171.152 133.354 170.966 133.299 170.772 133.249C170.506 133.179 170.258 133.087 170.004 132.981C169.758 132.885 169.505 132.813 169.251 132.737C169.114 132.694 168.984 132.648 168.853 132.589C168.703 132.523 168.56 132.469 168.405 132.419C168.164 132.341 167.931 132.25 167.697 132.155C167.511 132.08 167.324 132.009 167.137 131.937C166.872 131.835 166.609 131.73 166.348 131.615C166.068 131.494 166.068 131.494 165.785 131.378C165.596 131.302 165.409 131.221 165.222 131.141C165.156 131.113 165.09 131.084 165.022 131.055C164.861 130.986 164.701 130.916 164.54 130.844C164.129 130.66 164.129 130.66 163.71 130.492C163.551 130.424 163.405 130.339 163.255 130.252C163.086 130.159 162.91 130.088 162.732 130.014C162.444 129.891 162.172 129.762 161.902 129.599C161.801 129.558 161.7 129.516 161.599 129.474C161.476 129.416 161.365 129.348 161.25 129.273C161.041 129.139 160.829 129.043 160.598 128.947C160.303 128.806 160.013 128.657 159.728 128.495C159.51 128.373 159.289 128.272 159.057 128.177C158.574 127.97 158.574 127.97 158.372 127.847C158.219 127.757 158.064 127.7 157.898 127.64C157.497 127.485 157.109 127.295 156.727 127.099C156.545 127.006 156.36 126.936 156.168 126.868C156 126.8 155.84 126.718 155.678 126.636C155.443 126.516 155.211 126.41 154.962 126.322C154.742 126.241 154.529 126.14 154.315 126.043C154.225 126.003 154.135 125.964 154.044 125.924C153.833 125.831 153.626 125.73 153.421 125.624C153.287 125.559 153.15 125.505 153.011 125.45C151.817 124.945 151.817 124.945 151.414 124.739C151.235 124.647 151.053 124.571 150.866 124.498C150.657 124.416 150.476 124.321 150.284 124.205C150.192 124.167 150.099 124.13 150.006 124.094C149.75 123.995 149.508 123.88 149.265 123.751C149.122 123.683 148.979 123.625 148.831 123.568C148.456 123.42 148.101 123.236 147.743 123.053C146.959 122.656 146.167 122.284 145.369 121.918C145.111 121.8 144.854 121.68 144.597 121.56C144.538 121.533 144.538 121.533 144.478 121.505C144.272 121.408 144.077 121.301 143.882 121.182C143.792 121.135 143.702 121.09 143.612 121.045C143.561 121.02 143.51 120.995 143.458 120.969C143.402 120.941 143.347 120.914 143.289 120.886C143.158 120.82 143.027 120.755 142.897 120.689C142.836 120.659 142.775 120.629 142.713 120.597C142.668 120.575 142.624 120.553 142.578 120.53C142.578 120.491 142.578 120.452 142.578 120.411C142.543 120.401 142.508 120.39 142.472 120.379C142.208 120.295 141.98 120.209 141.748 120.056C141.646 119.997 141.543 119.938 141.441 119.88C141.338 119.821 141.235 119.763 141.133 119.704C140.885 119.562 140.635 119.424 140.385 119.285C140.385 119.246 140.385 119.207 140.385 119.167C140.287 119.147 140.189 119.127 140.088 119.107C140.088 119.068 140.088 119.029 140.088 118.989C139.99 118.969 139.893 118.95 139.792 118.929C139.792 118.89 139.792 118.851 139.792 118.811C139.694 118.791 139.596 118.772 139.495 118.752C139.495 118.713 139.495 118.673 139.495 118.633C139.462 118.627 139.428 118.621 139.394 118.615C139.234 118.566 139.124 118.492 138.988 118.396C138.836 118.289 138.725 118.218 138.547 118.159C138.547 118.12 138.547 118.081 138.547 118.04C138.505 118.025 138.463 118.01 138.419 117.994C138.236 117.916 138.085 117.819 137.921 117.707C137.63 117.508 137.63 117.508 137.335 117.315C137.27 117.273 137.206 117.231 137.139 117.188C137.08 117.15 137.02 117.111 136.959 117.072C136.915 117.039 136.872 117.007 136.828 116.973C136.828 116.934 136.828 116.895 136.828 116.855C136.788 116.841 136.747 116.828 136.706 116.814C136.49 116.718 136.293 116.598 136.117 116.44C136.117 116.401 136.117 116.362 136.117 116.321C136.073 116.305 136.029 116.289 135.983 116.273C135.827 116.205 135.71 116.138 135.583 116.025C135.583 115.986 135.583 115.947 135.583 115.906C135.551 115.892 135.52 115.877 135.487 115.862C135.312 115.77 135.151 115.667 134.99 115.551C134.99 115.512 134.99 115.472 134.99 115.432C134.958 115.418 134.925 115.404 134.892 115.389C134.721 115.296 134.584 115.182 134.435 115.058C134.377 115.01 134.32 114.963 134.261 114.913C134.208 114.869 134.155 114.825 134.101 114.78C134.045 114.734 134.045 114.734 133.988 114.687C133.819 114.549 133.655 114.41 133.508 114.247C133.508 114.207 133.508 114.168 133.508 114.128C133.474 114.113 133.44 114.098 133.405 114.083C133.253 113.999 133.15 113.904 133.028 113.782C132.983 113.737 132.938 113.692 132.892 113.647C132.846 113.6 132.8 113.553 132.753 113.506C132.706 113.459 132.659 113.412 132.61 113.365C132.544 113.298 132.544 113.298 132.476 113.23C132.415 113.168 132.415 113.168 132.352 113.106C132.264 113.002 132.264 113.002 132.264 112.883C132.231 112.871 132.199 112.859 132.165 112.847C131.97 112.731 131.843 112.567 131.7 112.394C131.637 112.318 131.573 112.243 131.51 112.167C131.478 112.128 131.445 112.09 131.412 112.05C131.32 111.941 131.227 111.833 131.133 111.727C130.709 111.243 130.322 110.741 129.952 110.216C129.912 110.159 129.912 110.159 129.871 110.102C129.677 109.826 129.487 109.548 129.3 109.267C129.272 109.225 129.243 109.183 129.214 109.14C128.687 108.344 128.246 107.511 127.818 106.659C127.796 106.617 127.775 106.574 127.752 106.531C126.67 104.397 125.876 101.972 125.506 99.6049C125.498 99.5523 125.489 99.4998 125.481 99.4456C125.353 98.6109 125.29 97.7812 125.269 96.9374C125.266 96.8645 125.264 96.7916 125.261 96.7165C125.185 92.5425 126.646 88.3582 128.351 84.6076C128.382 84.5403 128.412 84.473 128.444 84.4036C128.858 83.4903 129.296 82.591 129.755 81.6993C129.779 81.654 129.802 81.6086 129.826 81.5619C129.893 81.4328 129.96 81.3038 130.027 81.1748C130.046 81.1366 130.066 81.0984 130.087 81.0591C130.193 80.8544 130.306 80.6553 130.426 80.4582C130.493 80.3416 130.559 80.2248 130.626 80.1078C131.001 79.4473 131.377 78.787 131.767 78.1352C131.794 78.0896 131.822 78.0441 131.85 77.9971C132.014 77.725 132.186 77.4595 132.364 77.1965C132.453 77.0625 132.532 76.924 132.61 76.7839C133.381 75.435 134.278 74.1438 135.168 72.8706C135.199 72.8268 135.229 72.783 135.261 72.7379C135.662 72.1635 136.065 71.59 136.469 71.0179C136.624 70.7987 136.778 70.579 136.932 70.3587C137.263 69.8849 137.607 69.4204 137.954 68.9583C138.289 68.5125 138.622 68.0653 138.941 67.6076C138.981 67.5501 138.981 67.5501 139.022 67.4914C139.075 67.4158 139.128 67.34 139.18 67.264C139.243 67.1746 139.309 67.088 139.377 67.0021C139.416 67.0021 139.455 67.0021 139.495 67.0021C139.51 66.9606 139.524 66.919 139.538 66.8762C139.628 66.6744 139.744 66.5234 139.881 66.3501C139.934 66.2816 139.988 66.2131 140.042 66.1447C140.069 66.1099 140.097 66.0752 140.125 66.0393C140.253 65.8759 140.38 65.711 140.507 65.5461C140.544 65.4982 140.544 65.4982 140.581 65.4493C140.744 65.2384 140.904 65.0259 141.063 64.8125C141.285 64.5151 141.513 64.223 141.743 63.9317C141.912 63.7175 142.078 63.5013 142.241 63.2824C142.498 62.9375 142.762 62.5982 143.026 62.259C143.296 61.9132 143.563 61.5653 143.829 61.2165C144.063 60.9094 144.3 60.6045 144.538 60.3C144.804 59.9589 145.067 59.6161 145.327 59.2701C145.356 59.2313 145.385 59.1926 145.415 59.1527C145.547 58.9757 145.678 58.798 145.806 58.6178C145.848 58.558 145.891 58.4981 145.935 58.4365C145.971 58.3845 146.007 58.3326 146.044 58.279C146.074 58.243 146.104 58.2069 146.135 58.1697C146.174 58.1697 146.213 58.1697 146.253 58.1697C146.259 58.1357 146.265 58.1016 146.271 58.0665C146.321 57.9042 146.395 57.8175 146.505 57.6881C146.735 57.4082 146.95 57.1195 147.161 56.8249C147.21 56.756 147.21 56.756 147.261 56.6858C147.327 56.593 147.394 56.5003 147.46 56.4075C147.607 56.2035 147.756 56.0011 147.906 55.7986C148.15 55.466 148.39 55.1309 148.624 54.7909C148.65 54.7534 148.676 54.7159 148.703 54.6772C149.439 53.6193 150.142 52.5444 150.758 51.4121C150.791 51.354 150.824 51.2959 150.857 51.2361C151.499 50.0881 152.248 48.6518 151.959 47.2997C151.878 47.0659 151.774 46.8813 151.647 46.6698C151.647 46.6307 151.647 46.5916 151.647 46.5513C151.614 46.5355 151.581 46.5197 151.547 46.5034C151.347 46.3998 151.159 46.277 150.968 46.1565C150.465 45.8909 149.754 45.9674 149.221 46.1104C147.881 46.5404 146.678 47.2761 145.542 48.0925C145.488 48.1309 145.435 48.1694 145.379 48.209C145.082 48.4236 144.789 48.6422 144.501 48.8691C144.393 48.9527 144.285 49.0349 144.177 49.1164C143.812 49.3905 143.467 49.675 143.134 49.9869C142.891 50.2144 142.636 50.4246 142.377 50.6338C141.982 50.9563 141.614 51.3011 141.26 51.6672C141.212 51.7163 141.164 51.7654 141.115 51.8159C141.069 51.8627 141.024 51.9096 140.977 51.9578C140.859 52.0641 140.859 52.0641 140.74 52.0641C140.721 52.1228 140.701 52.1815 140.681 52.242C140.642 52.242 140.603 52.242 140.562 52.242C140.562 52.2811 140.562 52.3202 140.562 52.3605C140.465 52.4408 140.366 52.5198 140.266 52.5976C140.237 52.6563 140.237 52.6563 140.207 52.7162C140.168 52.7162 140.129 52.7162 140.088 52.7162C140.088 52.7553 140.088 52.7944 140.088 52.8347C139.99 52.9141 139.891 52.9931 139.792 53.0718C139.749 53.1256 139.706 53.1794 139.662 53.2349C139.627 53.2789 139.591 53.3229 139.555 53.3682C139.516 53.3682 139.477 53.3682 139.436 53.3682C139.417 53.4269 139.397 53.4856 139.377 53.5461C139.338 53.5461 139.299 53.5461 139.258 53.5461C139.246 53.5777 139.234 53.6093 139.222 53.6419C139.106 53.8424 138.947 53.9865 138.78 54.1463C138.547 54.3579 138.547 54.3579 138.369 54.6131C138.33 54.6131 138.291 54.6131 138.251 54.6131C138.231 54.6718 138.212 54.7304 138.191 54.7909C138.152 54.7909 138.113 54.7909 138.073 54.7909C138.059 54.8227 138.046 54.8545 138.032 54.8872C137.927 55.0769 137.804 55.2231 137.658 55.3837C137.619 55.3837 137.58 55.3837 137.539 55.3837C137.526 55.4155 137.512 55.4473 137.499 55.48C137.394 55.6697 137.27 55.8158 137.124 55.9765C137.085 55.9765 137.046 55.9765 137.006 55.9765C136.991 56.0095 136.976 56.0425 136.961 56.0765C136.874 56.2387 136.773 56.3722 136.65 56.51C136.611 56.51 136.572 56.51 136.532 56.51C136.507 56.5625 136.507 56.5625 136.483 56.6161C136.415 56.7439 136.343 56.8382 136.247 56.946C136.215 56.9826 136.183 57.0193 136.15 57.0571C136.116 57.0954 136.081 57.1337 136.046 57.1731C135.786 57.4685 135.535 57.7655 135.303 58.0843C135.278 58.1125 135.253 58.1407 135.227 58.1697C135.188 58.1697 135.149 58.1697 135.109 58.1697C135.093 58.2045 135.077 58.2393 135.06 58.2751C134.991 58.405 134.917 58.5052 134.822 58.6171C134.772 58.6769 134.772 58.6769 134.721 58.738C134.685 58.7803 134.649 58.8226 134.612 58.8662C134.283 59.2594 133.97 59.6605 133.67 60.0769C133.599 60.1743 133.525 60.269 133.449 60.363C133.41 60.363 133.371 60.363 133.331 60.363C133.316 60.4057 133.302 60.4483 133.287 60.4922C133.202 60.6824 133.098 60.8068 132.96 60.9632C132.574 61.4116 132.231 61.8911 131.883 62.3689C131.763 62.5326 131.641 62.6946 131.519 62.8564C131.167 63.324 130.827 63.8 130.485 64.2753C130.458 64.3138 130.43 64.3522 130.402 64.3918C130.094 64.8203 129.79 65.2512 129.49 65.6857C129.403 65.8121 129.316 65.9382 129.228 66.0641C128.751 66.7497 128.289 67.4444 127.839 68.1481C127.739 68.3039 127.638 68.4593 127.538 68.6144C127.255 69.0493 126.975 69.4853 126.705 69.9283C126.601 70.0992 126.495 70.2692 126.389 70.4391C126.063 70.962 125.74 71.485 125.439 72.0229C125.348 72.184 125.253 72.3417 125.156 72.4997C124.974 72.8016 124.819 73.1114 124.669 73.4301C124.627 73.5184 124.627 73.5184 124.584 73.6086C124.496 73.797 124.408 73.9858 124.32 74.1747C124.292 74.2347 124.264 74.2947 124.236 74.3565C123.669 75.5764 123.19 76.828 122.72 78.0871C122.694 78.1575 122.667 78.228 122.64 78.3006C121.579 81.1541 120.7 84.0819 119.775 86.9816C119.152 88.9326 118.528 90.885 117.773 92.79C117.687 93.009 117.606 93.2299 117.526 93.4511C116.636 95.8493 115.552 98.3082 114.11 100.427C113.89 100.746 113.89 100.746 113.71 101.087C113.671 101.087 113.631 101.087 113.591 101.087C113.578 101.127 113.565 101.166 113.552 101.207C113.448 101.438 113.307 101.624 113.154 101.824C113.123 101.865 113.091 101.907 113.059 101.949C112.654 102.479 112.226 102.987 111.753 103.458C111.704 103.526 111.704 103.526 111.653 103.595C111.615 103.645 111.615 103.645 111.576 103.695C111.537 103.695 111.497 103.695 111.457 103.695C111.457 103.734 111.457 103.773 111.457 103.814C111.418 103.814 111.379 103.814 111.339 103.814C111.319 103.872 111.299 103.931 111.279 103.991C111.135 104.144 110.967 104.273 110.805 104.406C110.773 104.433 110.741 104.459 110.708 104.486C109.521 105.462 108.299 106.236 106.833 106.718C106.73 106.752 106.73 106.752 106.625 106.787C106.438 106.846 106.251 106.902 106.063 106.955C106.008 106.971 105.953 106.987 105.896 107.003C104.699 107.312 103.439 107.346 102.21 107.37C102.123 107.373 102.123 107.373 102.035 107.375C98.9966 107.459 95.672 106.811 93.3181 104.762C93.2166 104.666 93.1194 104.566 93.0217 104.466C92.9538 104.416 92.9538 104.416 92.8846 104.366C92.8351 104.327 92.8351 104.327 92.7846 104.288C92.7846 104.249 92.7846 104.21 92.7846 104.169C92.7455 104.169 92.7063 104.169 92.666 104.169C91.8283 103.272 91.1867 102.177 90.7691 101.028C90.7481 100.977 90.7271 100.926 90.7055 100.873C90.0743 99.3039 89.948 97.4265 89.9985 95.7519C90 95.6975 90.0015 95.6432 90.003 95.5872C90.0964 92.2932 90.6177 88.8869 91.9547 85.8525C91.9979 85.7504 92.0409 85.6483 92.0839 85.5461C92.3825 84.8415 92.706 84.1597 93.0726 83.488C93.1351 83.3724 93.1958 83.2561 93.2558 83.1391C93.7975 82.0872 94.4584 81.101 95.1212 80.1226C95.2085 79.9935 95.2952 79.8641 95.3817 79.7346C95.4298 79.6633 95.478 79.5921 95.5262 79.5209C95.5872 79.4304 95.5872 79.4304 95.6494 79.3382C95.6821 79.297 95.7148 79.2558 95.7485 79.2133C95.7876 79.2133 95.8267 79.2133 95.867 79.2133C95.8807 79.1722 95.8944 79.1311 95.9085 79.0888C96.0016 78.8814 96.1299 78.7152 96.2709 78.5391C96.3244 78.4711 96.3779 78.4031 96.4313 78.3351C96.4696 78.2865 96.4696 78.2865 96.5086 78.2369C96.5954 78.1243 96.6762 78.0082 96.7562 77.8907C96.7953 77.8381 96.8344 77.7856 96.8748 77.7314C96.9139 77.7314 96.953 77.7314 96.9933 77.7314C97.0043 77.6923 97.0153 77.6532 97.0267 77.6128C97.126 77.4056 97.2522 77.2656 97.4057 77.0963C97.5347 76.952 97.6569 76.8036 97.7787 76.6533C98.0058 76.3742 98.237 76.099 98.4701 75.825C98.6427 75.6217 98.8118 75.4161 98.9791 75.2084C99.1963 74.9411 99.4253 74.6882 99.6598 74.4363C99.8696 74.2094 100.062 73.9728 100.252 73.7297C100.431 73.5095 100.624 73.3035 100.817 73.095C100.96 72.935 101.097 72.7713 101.232 72.6039C101.459 72.3219 101.7 72.0551 101.945 71.7886C102.087 71.6306 102.221 71.4688 102.354 71.3035C102.571 71.0348 102.799 70.781 103.034 70.5287C103.217 70.3311 103.389 70.1278 103.558 69.9178C103.704 69.7364 103.85 69.5646 104.018 69.4029C104.182 69.2446 104.324 69.0771 104.466 68.899C104.726 68.5753 105.006 68.2734 105.291 67.9712C105.501 67.7485 105.707 67.5237 105.907 67.2918C106.026 67.1541 106.148 67.0189 106.27 66.8836C106.43 66.7069 106.588 66.5295 106.745 66.3501C106.901 66.1706 107.059 65.9933 107.219 65.8166C107.504 65.5003 107.785 65.1814 108.061 64.857C108.352 64.5159 108.644 64.1776 108.949 63.8493C109.15 63.6331 109.342 63.4125 109.527 63.1824C109.726 62.9343 109.936 62.6996 110.153 62.4674C110.42 62.1827 110.67 61.8897 110.915 61.5856C111.087 61.3756 111.268 61.1752 111.451 60.9743C111.634 60.7731 111.812 60.5682 111.991 60.363C112.05 60.2949 112.109 60.2269 112.169 60.1588C112.464 59.8205 112.757 59.4821 113.039 59.133C113.219 58.911 113.405 58.6984 113.599 58.4884C113.813 58.2558 114.01 58.0175 114.201 57.7657C114.346 57.5807 114.505 57.4085 114.662 57.2343C114.806 57.0684 114.934 56.8935 115.06 56.7135C115.084 56.6854 115.108 56.6574 115.132 56.6285C115.171 56.6285 115.211 56.6285 115.251 56.6285C115.266 56.5948 115.282 56.5611 115.297 56.5264C115.376 56.3784 115.468 56.2586 115.573 56.1284C115.616 56.0762 115.658 56.024 115.701 55.9702C115.88 55.7551 116.061 55.5426 116.242 55.3302C116.44 55.0969 116.63 54.8586 116.818 54.6168C117.045 54.3243 117.28 54.0406 117.522 53.7609C117.797 53.4429 118.059 53.1208 118.297 52.7734C118.366 52.6736 118.438 52.5761 118.511 52.4791C118.55 52.4791 118.589 52.4791 118.63 52.4791C118.644 52.437 118.658 52.3949 118.672 52.3515C118.762 52.1529 118.876 52.0173 119.019 51.8529C119.29 51.5352 119.544 51.2077 119.792 50.8714C119.967 50.6359 120.143 50.4017 120.319 50.1672C120.396 50.064 120.474 49.9608 120.551 49.8576C120.674 49.6939 120.797 49.5303 120.921 49.3672C121.191 49.0095 121.451 48.6456 121.705 48.2757C121.816 48.1137 121.929 47.9529 122.042 47.7924C122.229 47.5252 122.411 47.2544 122.591 46.9824C122.683 46.8442 122.775 46.7062 122.867 46.5684C123.299 45.9239 123.72 45.2812 124.083 44.5951C124.13 44.5083 124.178 44.4216 124.225 44.3349C125.052 42.8303 125.052 42.8303 125.21 41.157C125.103 40.9315 125.053 40.8721 124.828 40.7532C124.276 40.5763 123.729 40.6813 123.194 40.8606C123.127 40.8822 123.061 40.9037 122.992 40.9259C122.537 41.0796 122.124 41.2652 121.712 41.5127C121.66 41.5437 121.608 41.5747 121.554 41.6067C120.933 41.9885 120.366 42.4376 119.831 42.9309C119.71 43.0415 119.588 43.148 119.463 43.254C119.258 43.4328 119.064 43.6214 118.871 43.8134C118.842 43.8419 118.813 43.8704 118.783 43.8997C118.628 44.0549 118.628 44.0549 118.511 44.2395C118.472 44.2395 118.433 44.2395 118.393 44.2395C118.372 44.2889 118.372 44.2889 118.35 44.3393C118.256 44.51 118.137 44.6345 118.004 44.7767C117.035 45.8222 116.191 46.99 115.385 48.1623C115.295 48.2915 115.205 48.4199 115.114 48.5484C114.886 48.8749 114.664 49.2056 114.443 49.5374C114.402 49.5994 114.361 49.6614 114.318 49.7253C113.692 50.6674 113.081 51.6166 112.489 52.5805C112.416 52.6987 112.344 52.8166 112.271 52.9345C112.043 53.3031 111.819 53.6737 111.596 54.0456C111.456 54.279 111.315 54.5113 111.172 54.7427C110.936 55.1236 110.706 55.5077 110.478 55.8924C110.291 56.2049 110.098 56.5125 109.902 56.8191C109.731 57.089 109.566 57.3627 109.401 57.6362C105.173 64.5979 105.173 64.5979 102.194 65.4069C101.203 65.6482 100.065 65.6292 99.1535 65.1388C98.2252 64.5432 97.779 63.6339 97.5417 62.589C96.9871 59.9369 98.1672 56.8429 98.9174 54.3174C99.0853 53.752 99.244 53.185 99.3941 52.6146C99.4972 52.2246 99.6088 51.8379 99.7246 51.4514C101.275 46.9331 101.275 46.9331 100.883 42.387C100.679 42.0672 100.447 41.8964 100.076 41.8091C99.7299 41.7802 99.4669 41.8368 99.1391 41.948C99.0088 41.9869 99.0088 41.9869 98.8309 41.9869C98.8309 42.026 98.8309 42.0651 98.8309 42.1055C98.7439 42.1719 98.7439 42.1719 98.6235 42.2499C97.1695 43.3134 96.8918 45.923 96.6376 47.5553C96.5207 48.3351 96.4212 49.1175 96.3179 49.8991C96.1988 50.8005 96.0783 51.7011 95.9263 52.5976C95.9133 52.6756 95.9133 52.6756 95.9001 52.7552C95.7124 53.8576 95.475 55.2204 94.559 55.9563C94.2517 56.1693 93.9185 56.2064 93.5552 56.1543C92.7887 55.9367 92.1986 55.5259 91.6247 54.9854C91.5151 54.8826 91.4058 54.7872 91.2878 54.6946C91.1179 54.5478 90.978 54.3923 90.8331 54.2215C90.7367 54.1105 90.6389 54.0024 90.5385 53.895C90.4938 53.8471 90.4938 53.8471 90.4483 53.7982C90.3886 53.7345 90.3287 53.6709 90.2686 53.6075C90.0578 53.3813 90.0578 53.3813 90.0578 53.2497C89.9991 53.2301 89.9404 53.2106 89.88 53.1904C89.791 53.0924 89.7063 52.9905 89.6243 52.8866C89.465 52.6864 89.3052 52.4888 89.1353 52.2975C88.9908 52.1234 88.9908 52.1234 88.9908 52.0048C88.9517 52.0048 88.9126 52.0048 88.8723 52.0048C88.782 51.9023 88.782 51.9023 88.6722 51.7566C88.4365 51.4526 88.1816 51.1732 87.9156 50.8959C87.6867 50.6539 87.6867 50.6539 87.6867 50.5229C87.6476 50.5229 87.6085 50.5229 87.5681 50.5229C87.4908 50.4421 87.4908 50.4421 87.3977 50.3265C87.2053 50.0995 86.9983 49.8971 86.779 49.6967C86.7321 49.6536 86.7321 49.6536 86.6842 49.6097C86.5161 49.4562 86.5161 49.4562 86.3233 49.3373C86.3233 49.2982 86.3233 49.2591 86.3233 49.2188C86.2574 49.1946 86.2574 49.1946 86.1902 49.1699C86.0363 49.1042 85.9206 49.0317 85.7861 48.9335C85.2784 48.5908 84.7519 48.3481 84.13 48.4482C83.5561 48.6125 83.1886 48.969 82.9023 49.4811C82.6272 50.0305 82.561 50.514 82.7407 51.1083C82.9546 51.6937 83.2826 52.1871 83.6852 52.6592C83.7744 52.7755 83.7744 52.7755 83.7744 52.894C83.8135 52.894 83.8526 52.894 83.8929 52.894C83.9719 52.9873 83.9719 52.9873 84.0596 53.1126C84.2037 53.3177 84.3671 53.4893 84.545 53.6646C84.6161 53.7351 84.6871 53.8055 84.7582 53.876C84.7973 53.9147 84.8365 53.9535 84.8768 53.9934C85.0525 54.1675 85.2278 54.3418 85.4031 54.5162C85.4959 54.6084 85.5887 54.7004 85.6817 54.7924C85.8159 54.9252 85.9498 55.0584 86.0837 55.1917C86.1255 55.233 86.1674 55.2742 86.2105 55.3167C86.2487 55.3549 86.2869 55.3931 86.3263 55.4325C86.3601 55.4661 86.394 55.4997 86.4289 55.5343C86.5011 55.6208 86.5011 55.6208 86.5011 55.7393C86.5598 55.7589 86.6185 55.7785 86.679 55.7986C86.7871 55.904 86.7871 55.904 86.8976 56.032C86.9345 56.0741 86.9714 56.1162 87.0094 56.1596C87.0939 56.2728 87.0939 56.2728 87.0939 56.3914C87.133 56.3914 87.1722 56.3914 87.2125 56.3914C87.2882 56.4698 87.2882 56.4698 87.3739 56.5806C87.4055 56.6215 87.4372 56.6624 87.4699 56.7045C87.5203 56.7714 87.5203 56.7714 87.5718 56.8397C87.6063 56.8852 87.6408 56.9307 87.6763 56.9776C88.1303 57.5863 88.5375 58.2053 88.7537 58.9403C88.7852 59.0325 88.7852 59.0325 88.8174 59.1265C88.9769 59.7914 88.9967 60.7135 88.6351 61.3115C88.1219 62.0654 87.2583 62.3973 86.3946 62.5699C85.6062 62.7149 84.8264 62.796 84.0258 62.8318C83.8781 62.8388 83.7303 62.8458 83.5826 62.8528C83.5061 62.8564 83.4297 62.86 83.3509 62.8637C79.1456 62.8481 79.1456 62.8481 75.5348 64.631C75.5152 64.6701 75.4956 64.7093 75.4755 64.7496C75.4364 64.7496 75.3972 64.7496 75.3569 64.7496C75.3331 64.8138 75.3331 64.8138 75.3088 64.8792C75.2384 65.046 75.2384 65.046 75.1457 65.1979C74.9854 65.4697 74.9697 65.7413 75.0013 66.0537C75.1279 66.4689 75.3348 66.6563 75.7022 66.856C76.7671 67.3788 77.94 67.4399 79.1062 67.4319C79.1551 67.4317 79.204 67.4315 79.2544 67.4313C81.3074 67.4213 83.263 67.1305 85.2563 66.6465C91.1164 65.2344 91.1164 65.2344 92.8128 66.2456C93.0837 66.4347 93.3217 66.6505 93.5552 66.8836C93.5923 66.92 93.6295 66.9565 93.6677 66.994C95.2303 68.6449 95.404 71.574 95.3565 73.7237C95.3303 74.38 95.2281 75.0143 95.0964 75.6567C95.0768 75.7609 95.0572 75.8651 95.0376 75.9693C94.7392 77.4718 94.1782 78.9448 93.5552 80.3396C93.5263 80.4044 93.5263 80.4044 93.4969 80.4704C93.3823 80.7253 93.2626 80.9775 93.1403 81.2288C93.1074 81.2969 93.0745 81.365 93.0407 81.4351C92.3903 82.7674 91.666 84.0577 90.8877 85.319C90.8501 85.3801 90.8125 85.4413 90.7737 85.5043C90.3194 86.2414 89.854 86.9697 89.3692 87.6871C89.2605 87.8482 89.1527 88.0099 89.0451 88.1717C88.9951 88.2467 88.9451 88.3217 88.895 88.3966C88.7897 88.5541 88.6853 88.712 88.5828 88.8715C88.5354 88.945 88.5354 88.945 88.487 89.0201C88.4607 89.0616 88.4344 89.1031 88.4073 89.1459C88.3847 89.174 88.3621 89.2022 88.3388 89.2313C88.2996 89.2313 88.2605 89.2313 88.2202 89.2313C88.2078 89.27 88.1954 89.3088 88.1827 89.3487C88.0705 89.5965 87.9145 89.8021 87.7534 90.0204C87.719 90.0675 87.6846 90.1146 87.6492 90.1631C87.5436 90.3073 87.4374 90.4511 87.331 90.5947C87.2848 90.6571 87.2848 90.6571 87.2377 90.7208C86.7812 91.3356 86.3163 91.9441 85.8491 92.5509C85.8153 92.5947 85.7815 92.6386 85.7467 92.6839C85.2831 93.285 84.811 93.8781 84.3304 94.4657C84.2205 94.6008 84.1122 94.7373 84.0041 94.8738C83.7971 95.1335 83.583 95.3866 83.368 95.6395C82.9851 96.0904 82.6097 96.546 82.2575 97.0215C82.2299 97.0524 82.2023 97.0834 82.1739 97.1152C82.1347 97.1152 82.0956 97.1152 82.0553 97.1152C82.0361 97.1619 82.0361 97.1619 82.0164 97.2095C81.9059 97.4078 81.7594 97.5712 81.6107 97.7414C81.579 97.7781 81.5473 97.8148 81.5146 97.8526C81.2722 98.1317 81.0235 98.4045 80.7734 98.6766C80.6285 98.8389 80.4913 99.0057 80.3548 99.1751C80.1747 99.3983 79.9887 99.6038 79.7828 99.8031C79.6432 99.9421 79.5165 100.091 79.3878 100.24C79.2469 100.401 79.1028 100.559 78.958 100.716C78.9166 100.761 78.9166 100.761 78.8743 100.807C78.7599 100.932 78.6454 101.056 78.5308 101.181C78.446 101.273 78.3611 101.365 78.2764 101.457C78.2489 101.487 78.2215 101.517 78.1932 101.548C78.044 101.711 77.8977 101.875 77.754 102.043C77.595 102.226 77.4266 102.398 77.2538 102.569C77.0847 102.736 76.9197 102.903 76.7648 103.084C76.2495 103.683 75.6985 104.252 75.1339 104.805C74.967 104.97 74.8066 105.135 74.6556 105.315C74.3124 105.709 73.9373 106.073 73.5682 106.442C73.4866 106.524 73.4051 106.606 73.3236 106.687C73.1537 106.858 72.9836 107.028 72.8135 107.198C72.595 107.416 72.377 107.635 72.1591 107.854C71.9913 108.023 71.8233 108.191 71.6552 108.359C71.5746 108.439 71.4941 108.52 71.4137 108.601C71.3019 108.713 71.1898 108.825 71.0775 108.937C71.0276 108.988 71.0276 108.988 70.9766 109.039C70.7468 109.267 70.7468 109.267 70.6147 109.267C70.6025 109.3 70.5902 109.333 70.5776 109.367C70.4866 109.52 70.3758 109.608 70.2373 109.717C70.1358 109.805 70.0549 109.897 69.97 110.001C69.8452 110.152 69.7154 110.281 69.5658 110.407C69.31 110.628 69.0729 110.864 68.8364 111.105C68.5642 111.382 68.2878 111.648 67.9932 111.902C67.8228 112.051 67.6686 112.215 67.5123 112.379C67.4137 112.468 67.4137 112.468 67.2951 112.468C67.2756 112.527 67.256 112.586 67.2359 112.646C67.143 112.737 67.143 112.737 67.0247 112.835C66.7976 113.026 66.5909 113.231 66.3861 113.446C66.2874 113.535 66.2874 113.535 66.1689 113.535C66.1493 113.594 66.1297 113.653 66.1096 113.713C66.0084 113.817 66.0084 113.817 65.8836 113.924C65.8225 113.977 65.8225 113.977 65.7602 114.032C65.6354 114.128 65.6354 114.128 65.505 114.189C65.3772 114.242 65.3772 114.242 65.339 114.424C65.2378 114.524 65.2378 114.524 65.113 114.628C64.9766 114.743 64.8487 114.856 64.724 114.984C64.6276 115.076 64.6276 115.076 64.5091 115.076C64.5091 115.116 64.5091 115.155 64.5091 115.195C64.4116 115.295 64.4116 115.295 64.2831 115.406C64.2411 115.443 64.1992 115.48 64.156 115.518C64.0349 115.61 64.0349 115.61 63.857 115.669C63.8166 115.748 63.7772 115.827 63.7385 115.906C63.6294 116.018 63.6294 116.018 63.5051 116.125C63.4437 116.178 63.4437 116.178 63.3812 116.233C63.2642 116.321 63.2642 116.321 63.0864 116.381C63.0864 116.42 63.0864 116.459 63.0864 116.499C63.0035 116.583 63.0035 116.583 62.8864 116.681C62.6346 116.894 62.3918 117.115 62.1498 117.34C62.0194 117.448 62.0194 117.448 61.8416 117.507C61.8416 117.546 61.8416 117.585 61.8416 117.625C61.7421 117.714 61.6389 117.799 61.5341 117.881C61.3545 118.023 61.1874 118.161 61.0272 118.324C60.8931 118.455 60.8931 118.455 60.7746 118.455C60.7746 118.494 60.7746 118.533 60.7746 118.574C60.45 118.87 60.45 118.87 60.3004 118.87C60.3004 118.909 60.3004 118.948 60.3004 118.989C60.207 119.083 60.207 119.083 60.0818 119.189C60.0386 119.225 59.9954 119.262 59.9509 119.3C59.9098 119.334 59.8686 119.368 59.8261 119.404C59.7699 119.451 59.7137 119.499 59.6557 119.548C59.5297 119.641 59.5297 119.641 59.4112 119.641C59.3969 119.676 59.3826 119.711 59.3679 119.747C59.2782 119.903 59.1824 119.976 59.037 120.082C58.8279 120.238 58.6454 120.402 58.4627 120.589C58.3906 120.656 58.3177 120.721 58.2442 120.786C58.2097 120.816 58.1752 120.846 58.1397 120.878C58.0478 120.945 58.0478 120.945 57.9292 120.945C57.9097 121.004 57.8901 121.062 57.87 121.123C57.7483 121.224 57.6272 121.319 57.4995 121.412C57.299 121.559 57.1129 121.702 56.9373 121.879C56.803 122.012 56.803 122.012 56.6251 122.071C56.6251 122.11 56.6251 122.149 56.6251 122.19C56.3601 122.427 56.3601 122.427 56.2102 122.427C56.1906 122.486 56.1711 122.544 56.1509 122.605C55.8867 122.842 55.8867 122.842 55.736 122.842C55.736 122.881 55.736 122.92 55.736 122.96C55.6036 123.075 55.4709 123.183 55.3321 123.29C55.275 123.335 55.275 123.335 55.2167 123.381C55.0514 123.51 54.9292 123.605 54.7282 123.672C54.7087 123.73 54.6891 123.789 54.669 123.85C54.5171 123.92 54.5171 123.92 54.3726 123.968C54.3726 124.007 54.3726 124.046 54.3726 124.087C54.2524 124.189 54.1316 124.285 54.0058 124.379C53.7169 124.601 53.4337 124.827 53.1574 125.065C52.8209 125.353 52.4752 125.628 52.1256 125.9C52.008 125.992 51.8918 126.085 51.7773 126.18C51.6458 126.28 51.6458 126.28 51.5272 126.28C51.5077 126.339 51.4881 126.397 51.468 126.458C51.3425 126.56 51.3425 126.56 51.179 126.673C50.88 126.884 50.5974 127.108 50.3158 127.341C50.1119 127.508 49.9017 127.665 49.6896 127.821C49.6105 127.88 49.5315 127.94 49.4525 127.999C49.4132 128.028 49.374 128.058 49.3335 128.088C49.2559 128.146 49.1784 128.205 49.101 128.264C48.7396 128.537 48.3679 128.795 47.9956 129.053C47.768 129.212 47.5422 129.371 47.3222 129.54C47.0884 129.718 46.8424 129.872 46.5938 130.028C46.4415 130.125 46.2946 130.227 46.1478 130.333C45.8665 130.533 45.5738 130.709 45.2751 130.882C45.0807 130.995 44.8991 131.115 44.7207 131.253C44.4507 131.46 44.1626 131.629 43.8693 131.8C43.494 132.015 43.494 132.015 43.1429 132.265C42.8979 132.46 42.6244 132.607 42.354 132.763C41.9899 132.975 41.6327 133.19 41.2842 133.426C41.0138 133.604 40.7299 133.759 40.4485 133.918C40.2136 134.052 39.985 134.19 39.7615 134.343C39.445 134.557 39.1086 134.726 38.7679 134.898C38.7205 134.923 38.673 134.947 38.6241 134.972C38.5819 134.993 38.5397 135.015 38.4961 135.037C38.3603 135.112 38.3603 135.112 38.224 135.229C38.0684 135.352 37.9196 135.434 37.7415 135.52C37.6796 135.55 37.6177 135.58 37.5539 135.612C37.4245 135.674 37.2952 135.736 37.1658 135.799C37.1039 135.829 37.042 135.859 36.9783 135.89C36.9221 135.917 36.8659 135.944 36.8081 135.972C36.6446 136.057 36.6446 136.057 36.5007 136.18C36.3448 136.304 36.1972 136.381 36.0161 136.464C35.9534 136.492 35.8908 136.521 35.8262 136.55C35.7289 136.594 35.7289 136.594 35.6297 136.639C35.5642 136.669 35.4986 136.699 35.4311 136.73C34.9459 136.95 34.9459 136.95 34.8109 136.95C34.8109 136.989 34.8109 137.028 34.8109 137.068C34.2341 137.346 33.6582 137.621 33.0661 137.864C32.8842 137.945 32.7097 138.032 32.5329 138.123C32.1045 138.339 31.6619 138.508 31.2135 138.676C31.0539 138.737 30.8943 138.798 30.7349 138.858C30.6965 138.873 30.6581 138.888 30.6186 138.903C30.4239 138.977 30.2329 139.056 30.0441 139.144C29.6376 139.329 29.2075 139.458 28.7831 139.595C28.7358 139.611 28.6885 139.626 28.6397 139.642C27.8919 139.884 27.1392 140.101 26.3786 140.299C26.3329 140.311 26.2872 140.323 26.2401 140.335C25.7532 140.462 25.265 140.582 24.7758 140.699C24.7344 140.709 24.6929 140.719 24.6502 140.729C24.3929 140.79 24.1432 140.828 23.8799 140.846C23.6 140.876 23.3257 140.943 23.051 141.003C22.8368 141.04 22.8368 141.04 22.643 141.038C22.458 141.04 22.3239 141.059 22.1463 141.099C21.6801 141.185 21.2132 141.176 20.741 141.174C20.6419 141.174 20.5427 141.175 20.4436 141.175C20.2366 141.175 20.0296 141.175 19.8226 141.174C19.56 141.173 19.2974 141.174 19.0349 141.175C18.8303 141.175 18.6257 141.175 18.4211 141.175C18.3244 141.174 18.2277 141.175 18.1311 141.175C17.4962 141.176 16.8852 141.134 16.257 141.04C16.1891 141.03 16.1212 141.02 16.0513 141.009C13.3592 140.594 10.6841 139.556 8.43229 138.017C8.37437 137.978 8.37437 137.978 8.31529 137.937C7.67737 137.5 7.08148 137.017 6.51062 136.496C6.42428 136.418 6.33749 136.34 6.24921 136.264C5.50904 135.627 4.88533 134.89 4.30982 134.103C4.23049 133.995 4.14992 133.889 4.06888 133.782C3.66054 133.236 3.32798 132.65 2.99905 132.055C2.93192 131.934 2.86344 131.814 2.79395 131.694C1.23578 128.93 0.540248 125.606 0.192673 122.486C0.188153 122.446 0.183625 122.406 0.178968 122.364C0.04531 121.161 -0.00110921 119.966 2.00487e-05 118.755C6.06433e-05 118.694 0.000108473 118.632 0.000150298 118.569C0.00158502 117.91 0.0137877 117.253 0.0416997 116.595C0.0439671 116.539 0.046238 116.484 0.048574 116.426C0.050987 116.375 0.0533963 116.324 0.0558824 116.272C0.0579611 116.227 0.0600361 116.182 0.0621778 116.135C0.0741137 116.025 0.0741173 116.025 0.133395 115.906C0.149024 115.715 0.159732 115.524 0.169286 115.333C0.186698 115.023 0.186698 115.023 0.251951 114.958C0.269213 114.807 0.278516 114.656 0.288768 114.504C0.319058 114.237 0.374089 113.976 0.429784 113.713C0.447844 113.627 0.447844 113.627 0.466268 113.539C0.504251 113.358 0.542889 113.178 0.581683 112.998C0.594788 112.936 0.607893 112.874 0.621395 112.811C0.634041 112.752 0.646688 112.693 0.659717 112.633C0.671069 112.58 0.682421 112.527 0.694117 112.472C0.726173 112.35 0.726173 112.35 0.785451 112.29C0.807242 112.152 0.827089 112.014 0.844729 111.875C0.883852 111.875 0.922975 111.875 0.963284 111.875C0.957782 111.802 0.957782 111.802 0.95217 111.727C0.963303 111.519 1.01668 111.367 1.09158 111.175C1.17134 110.966 1.23859 110.754 1.30784 110.542C1.56332 109.771 1.83435 109.031 2.21098 108.309C2.31483 108.109 2.41492 107.906 2.51562 107.704C2.5535 107.628 2.5914 107.552 2.62931 107.476C2.64745 107.44 2.66559 107.404 2.68428 107.366C2.78243 107.17 2.88058 106.974 2.97873 106.778C3.01785 106.778 3.05698 106.778 3.09728 106.778C3.09728 106.699 3.09728 106.621 3.09728 106.54C3.13641 106.54 3.17553 106.54 3.21584 106.54C3.22868 106.487 3.22868 106.487 3.24177 106.433C3.26843 106.329 3.30054 106.227 3.3344 106.125C3.37352 106.125 3.41264 106.125 3.45295 106.125C3.45295 106.067 3.45295 106.008 3.45295 105.948C3.49208 105.948 3.5312 105.948 3.57151 105.948C3.5874 105.906 3.6033 105.864 3.61967 105.822C3.6941 105.641 3.77912 105.469 3.8679 105.296C3.90702 105.296 3.94614 105.296 3.98645 105.296C3.99256 105.26 3.99868 105.225 4.00498 105.188C4.0516 105.04 4.11304 104.987 4.22356 104.881C4.24312 104.822 4.26269 104.763 4.28284 104.703C4.32196 104.703 4.36109 104.703 4.4014 104.703C4.4014 104.644 4.4014 104.585 4.4014 104.525C4.44052 104.525 4.47964 104.525 4.51995 104.525C4.53951 104.447 4.55908 104.368 4.57923 104.288C4.61835 104.288 4.65748 104.288 4.69779 104.288C4.71368 104.244 4.72957 104.2 4.74595 104.154C4.81354 103.998 4.88118 103.881 4.99417 103.754C5.0333 103.754 5.07242 103.754 5.11273 103.754C5.11273 103.696 5.11273 103.637 5.11273 103.577C5.15185 103.577 5.19098 103.577 5.23129 103.577C5.25085 103.518 5.27041 103.459 5.29056 103.399C5.32969 103.399 5.36881 103.399 5.40912 103.399C5.41401 103.362 5.4189 103.325 5.42394 103.288C5.4684 103.162 5.4684 103.162 5.59066 103.087C5.64751 103.065 5.64751 103.065 5.70551 103.043C5.70551 102.984 5.70551 102.926 5.70551 102.865C5.74463 102.865 5.78375 102.865 5.82406 102.865C5.84362 102.807 5.86319 102.748 5.88334 102.687C5.92246 102.687 5.96159 102.687 6.0019 102.687C6.0019 102.629 6.0019 102.57 6.0019 102.51C6.0834 102.409 6.0834 102.409 6.17973 102.332C6.21885 102.332 6.25798 102.332 6.29829 102.332C6.32029 102.282 6.32029 102.282 6.34274 102.232C6.43043 102.069 6.53152 101.936 6.65395 101.798C6.69308 101.798 6.7322 101.798 6.77251 101.798C6.77251 101.759 6.77251 101.72 6.77251 101.68C6.85401 101.583 6.85401 101.583 6.95034 101.502C6.98946 101.502 7.02859 101.502 7.0689 101.502C7.08846 101.443 7.10802 101.384 7.12817 101.324C7.1673 101.324 7.20642 101.324 7.24673 101.324C7.26629 101.265 7.28585 101.207 7.30601 101.146C7.34513 101.146 7.38425 101.146 7.42456 101.146C7.44413 101.087 7.46369 101.029 7.48384 100.968C7.52296 100.968 7.56209 100.968 7.6024 100.968C7.6024 100.929 7.6024 100.89 7.6024 100.85C7.64152 100.85 7.68064 100.85 7.72095 100.85C7.74051 100.791 7.76008 100.732 7.78023 100.672C7.81935 100.672 7.85848 100.672 7.89879 100.672C7.89879 100.633 7.89879 100.594 7.89879 100.553C7.99419 100.455 7.99419 100.455 8.12108 100.346C8.16234 100.31 8.2036 100.274 8.24612 100.237C8.37301 100.138 8.37301 100.138 8.5036 100.077C8.63124 100.024 8.63124 100.024 8.6694 99.842C8.70852 99.842 8.74764 99.842 8.78795 99.842C8.78795 99.8029 8.78795 99.7638 8.78795 99.7235C8.99315 99.5456 8.99315 99.5456 9.14362 99.5456C9.14362 99.5065 9.14362 99.4674 9.14362 99.4271C9.22142 99.3307 9.22142 99.3307 9.32145 99.2492C9.38014 99.2492 9.43882 99.2492 9.49929 99.2492C9.51885 99.1906 9.53841 99.1319 9.55856 99.0714C9.59769 99.0714 9.63681 99.0714 9.67712 99.0714C9.67712 99.0323 9.67712 98.9932 9.67712 98.9529C9.77715 98.863 9.77715 98.863 9.91423 98.7602C9.9626 98.7238 10.011 98.6873 10.0608 98.6497C10.135 98.5944 10.135 98.5944 10.2106 98.5379C10.2558 98.5028 10.3009 98.4678 10.3475 98.4316C10.4099 98.3834 10.4099 98.3834 10.4737 98.3341C10.5115 98.3049 10.5493 98.2756 10.5883 98.2455C10.6848 98.1822 10.6848 98.1822 10.8034 98.1822C10.8034 98.1431 10.8034 98.104 10.8034 98.0637C10.9063 97.978 11.0132 97.8972 11.122 97.8192C11.1812 97.7762 11.2403 97.7333 11.3012 97.689C11.4555 97.5895 11.4555 97.5895 11.574 97.5895C11.574 97.5503 11.574 97.5112 11.574 97.4709C11.6327 97.4513 11.6914 97.4318 11.7518 97.4116C11.7714 97.3725 11.791 97.3334 11.8111 97.2931C11.8698 97.2931 11.9285 97.2931 11.989 97.2931C11.989 97.254 11.989 97.2148 11.989 97.1745C12.1408 97.0384 12.1952 96.9967 12.4039 96.9967C12.4039 96.9576 12.4039 96.9184 12.4039 96.8781C12.6638 96.7003 12.6638 96.7003 12.8188 96.7003C12.8188 96.6612 12.8188 96.6221 12.8188 96.5817C12.9469 96.4898 12.9469 96.4898 13.1189 96.3854C13.3214 96.2609 13.5181 96.1356 13.708 95.9927C13.8858 95.8704 13.8858 95.8704 14.0637 95.8704C14.0832 95.8117 14.1028 95.753 14.123 95.6926C14.2413 95.6145 14.2413 95.6145 14.386 95.5407C14.5415 95.4606 14.6507 95.4019 14.775 95.2776C14.8337 95.2776 14.8924 95.2776 14.9528 95.2776C14.9528 95.2385 14.9528 95.1994 14.9528 95.1591C15.0066 95.129 15.0603 95.0989 15.1156 95.0678C15.5909 94.8012 15.5909 94.8012 16.0495 94.507C16.304 94.3323 16.571 94.182 16.8399 94.031C17.0441 93.9156 17.2416 93.7949 17.4351 93.6623C17.6242 93.5329 17.8137 93.428 18.0205 93.33C18.2573 93.2096 18.4821 93.0679 18.7089 92.9297C18.8652 92.8472 18.8652 92.8472 19.043 92.8472C19.043 92.8081 19.043 92.769 19.043 92.7287C19.09 92.7041 19.09 92.7041 19.1379 92.679C19.2829 92.603 19.4279 92.5269 19.5728 92.4508C19.6221 92.425 19.6713 92.3992 19.722 92.3727C20.1749 92.1348 20.6221 91.8892 21.0622 91.6283C21.8169 91.1875 21.8169 91.1875 22.0662 91.1875C22.0662 91.1483 22.0662 91.1092 22.0662 91.0689C22.0978 91.0543 22.1294 91.0397 22.162 91.0246C22.3081 90.957 22.4539 90.8888 22.5997 90.8207C22.6494 90.7977 22.6992 90.7748 22.7504 90.7511C23.0348 90.6177 23.3023 90.4732 23.5663 90.3029C23.6814 90.2296 23.7991 90.168 23.9223 90.1093C24.2183 89.9647 24.5093 89.8116 24.8004 89.6574C25.4466 89.3161 26.0968 88.9857 26.7592 88.6768C27.1491 88.4948 27.5307 88.3092 27.9013 88.0902C28.2051 87.9113 28.5084 87.7724 28.8359 87.6433C29.0007 87.5719 29.146 87.4891 29.2981 87.3937C29.504 87.2647 29.7058 87.1649 29.9316 87.0751C30.206 86.9655 30.4655 86.8389 30.7244 86.6972C31.322 86.3711 31.9397 86.0883 32.5572 85.8024C32.6304 85.7685 32.7037 85.7345 32.7769 85.7006C32.8126 85.684 32.8483 85.6675 32.8851 85.6504C33.1918 85.5073 33.4941 85.3559 33.7962 85.2033C34.0814 85.0597 34.3693 84.9233 34.659 84.7892C34.9953 84.6333 35.3228 84.4664 35.6482 84.289C36.0994 84.0442 36.5644 83.8406 37.0364 83.6395C37.4557 83.4601 37.8632 83.265 38.2692 83.0576C38.514 82.9327 38.7628 82.817 39.0123 82.7019C39.2972 82.5701 39.5804 82.4348 39.8632 82.2986C40.6374 81.9261 41.4184 81.5713 42.204 81.2235C42.2947 81.1833 42.3855 81.143 42.4763 81.1028C42.5428 81.0734 42.5428 81.0734 42.6108 81.0433C42.8778 80.9249 43.1424 80.8023 43.4062 80.6768C43.8775 80.4532 44.359 80.2535 44.8407 80.0534C45.183 79.9103 45.521 79.7609 45.8563 79.6021C46.311 79.3873 46.774 79.1966 47.2407 79.0096C47.3246 78.9758 47.4084 78.9419 47.4923 78.9081C47.695 78.8264 47.8978 78.7449 48.1006 78.6636C48.2492 78.6039 48.3977 78.544 48.5462 78.4842C48.8282 78.3707 49.1106 78.2582 49.3932 78.1463C49.4456 78.1256 49.498 78.1049 49.5519 78.0835C52.8422 76.7831 56.2202 75.5883 59.6775 74.8143C59.8891 74.7667 60.1 74.7169 60.311 74.667C64.1271 73.7897 69.1273 72.8672 72.9858 73.9376C73.0408 73.9502 73.0958 73.9628 73.1525 73.9758C73.6215 74.0923 74.2805 74.3817 74.5863 74.7675C74.5863 74.8066 74.5863 74.8458 74.5863 74.8861C74.6254 74.8861 74.6646 74.8861 74.7049 74.8861C74.7049 74.9252 74.7049 74.9643 74.7049 75.0046C74.744 75.0046 74.7831 75.0046 74.8234 75.0046C75.4227 76.1008 75.5464 77.121 75.5425 78.3635C75.5422 78.4824 75.5425 78.6012 75.5429 78.72C75.5431 79.2277 75.5226 79.7323 75.4919 80.239C75.4743 80.5289 75.4609 80.8189 75.4479 81.1091C75.4433 81.2096 75.4386 81.3101 75.4339 81.4107C75.4268 81.5628 75.4199 81.7149 75.4133 81.8671C75.3337 83.687 74.9096 85.0538 73.9009 86.5823C73.8705 86.6284 73.8402 86.6745 73.8089 86.7219C73.6472 86.9596 73.6472 86.9596 73.5786 87.038C73.5395 87.038 73.5003 87.038 73.46 87.038C73.4391 87.102 73.4391 87.102 73.4177 87.1672C73.3286 87.3626 73.219 87.483 73.071 87.6382C72.8096 87.917 72.569 88.2053 72.3342 88.5072C72.2152 88.6385 72.2152 88.6385 72.0888 88.7013C71.9693 88.7475 71.9693 88.7475 71.9257 88.8645C71.8489 89.015 71.7582 89.109 71.6379 89.2274C71.5942 89.2707 71.5504 89.3141 71.5054 89.3588C71.4596 89.4035 71.4139 89.4482 71.3668 89.4943C71.2992 89.5611 71.2992 89.5611 71.2303 89.6292C71.1429 89.7156 71.0553 89.8018 70.9676 89.8879C70.8748 89.9793 70.7828 90.0714 70.6911 90.1638C70.3272 90.5245 69.9395 90.8615 69.5526 91.1972C69.4045 91.3277 69.2595 91.4614 69.1142 91.595C68.8483 91.8375 68.5752 92.0676 68.2952 92.2936C68.1114 92.4434 67.9311 92.5969 67.7508 92.7509C67.4516 93.006 67.1454 93.2503 66.835 93.4916C66.5283 93.7311 66.2317 93.9815 65.9357 94.234C65.7212 94.4168 65.5031 94.5949 65.2846 94.7728C65.0538 94.9612 64.8241 95.151 64.5943 95.3406C64.3281 95.5603 64.0615 95.779 63.7903 95.9927C63.1968 96.4661 62.631 96.9727 62.075 97.4894C62.0334 97.5277 61.9918 97.5659 61.9489 97.6053C61.6476 97.8881 61.3277 98.1925 61.1895 98.5898C61.1895 98.6313 61.1895 98.6729 61.1895 98.7157C61.2948 98.8453 61.2948 98.8453 61.4298 98.8494C61.783 98.846 62.1117 98.8089 62.4566 98.7343C62.5069 98.7238 62.5573 98.7133 62.6091 98.7024C62.981 98.6234 63.3509 98.5364 63.7199 98.4453C63.7674 98.4336 63.8148 98.4219 63.8637 98.4098C65.043 98.1105 66.2277 97.633 67.2992 97.0577C67.4252 96.9906 67.5521 96.9256 67.6793 96.8608C69.1976 96.0821 70.6426 95.1514 72.0188 94.1439C72.0728 94.1047 72.1267 94.0654 72.1823 94.0249C72.2761 93.9564 72.3697 93.8876 72.463 93.8184C72.736 93.6179 72.736 93.6179 72.8673 93.6179C72.8673 93.5787 72.8673 93.5396 72.8673 93.4993C73.0022 93.391 73.1381 93.289 73.2785 93.1881C73.6981 92.8812 74.1008 92.5583 74.4975 92.2223C74.5376 92.1887 74.5777 92.1551 74.619 92.1204C74.6718 92.0755 74.6718 92.0755 74.7258 92.0297C74.8234 91.9581 74.8234 91.9581 75.0013 91.8988C75.0013 91.8597 75.0013 91.8205 75.0013 91.7802C75.108 91.6858 75.108 91.6858 75.2569 91.5728C75.5486 91.3454 75.8217 91.1033 76.0937 90.8529C76.217 90.7399 76.3416 90.6295 76.4684 90.5206C76.6298 90.3811 76.786 90.237 76.941 90.0904C76.9808 90.0528 77.0206 90.0152 77.0616 89.9765C77.1419 89.9004 77.222 89.8242 77.3018 89.7476C77.3389 89.7125 77.376 89.6773 77.4143 89.6411C77.4476 89.6093 77.4809 89.5775 77.5152 89.5447C77.6095 89.4684 77.6095 89.4684 77.7873 89.4091C77.8069 89.3504 77.8264 89.2918 77.8466 89.2313C77.9614 89.1016 77.9614 89.1016 78.0837 88.9942C78.1228 88.9942 78.1619 88.9942 78.2023 88.9942C78.2023 88.9551 78.2023 88.9159 78.2023 88.8756C78.2838 88.7793 78.2838 88.7793 78.3801 88.6978C78.4192 88.6978 78.4583 88.6978 78.4986 88.6978C78.4986 88.6587 78.4986 88.6195 78.4986 88.5792C78.6003 88.4811 78.6003 88.4811 78.732 88.3718C78.9089 88.2301 78.9089 88.2301 79.0321 88.0457C79.0713 88.0457 79.1104 88.0457 79.1507 88.0457C79.1703 87.9871 79.1898 87.9284 79.21 87.8679C79.2491 87.8679 79.2882 87.8679 79.3285 87.8679C79.3285 87.8288 79.3285 87.7897 79.3285 87.7494C79.3677 87.7494 79.4068 87.7494 79.4471 87.7494C79.463 87.7141 79.4788 87.6789 79.4952 87.6425C79.5664 87.5109 79.6372 87.4278 79.7442 87.3242C79.7791 87.2899 79.8141 87.2556 79.8502 87.2203C79.8871 87.1846 79.924 87.1489 79.9621 87.1121C80.4835 86.6039 80.4835 86.6039 80.929 86.0303C80.9682 86.0303 81.0073 86.0303 81.0476 86.0303C81.0603 85.9987 81.0731 85.967 81.0863 85.9344C81.1955 85.7412 81.344 85.59 81.4959 85.4301C81.7107 85.2144 81.7107 85.2144 81.8775 84.9633C81.9166 84.9633 81.9557 84.9633 81.996 84.9633C82.0125 84.9284 82.029 84.8935 82.0459 84.8575C82.1534 84.652 82.2976 84.4782 82.4406 84.2964C82.4702 84.2579 82.4998 84.2194 82.5302 84.1797C82.6061 84.0829 82.6861 83.9893 82.7666 83.8963C82.8058 83.8963 82.8449 83.8963 82.8852 83.8963C82.9243 83.7985 82.9634 83.7007 83.0038 83.5999C83.0429 83.5999 83.082 83.5999 83.1223 83.5999C83.1614 83.5021 83.2006 83.4043 83.2409 83.3035C83.28 83.3035 83.3191 83.3035 83.3594 83.3035C83.3807 83.2556 83.3807 83.2556 83.4025 83.2067C83.4978 83.0295 83.615 82.8779 83.7373 82.7181C83.8784 82.5337 84.0155 82.3506 84.1398 82.1545C84.1757 82.1033 84.2116 82.0522 84.2486 81.9994C84.2877 81.9994 84.3268 81.9994 84.3671 81.9994C84.3855 81.9414 84.3855 81.9414 84.4042 81.8822C84.5179 81.6323 84.6779 81.4262 84.8414 81.2066C85.1915 80.7285 85.5267 80.2439 85.8491 79.7468C85.8902 79.684 85.8902 79.684 85.9321 79.6199C86.3886 78.9204 86.7999 78.2025 87.1922 77.4653C87.2644 77.3301 87.3376 77.1956 87.4114 77.0613C87.651 76.6232 87.859 76.1808 88.0424 75.716C88.0709 75.6486 88.0995 75.5812 88.129 75.5117C88.3005 75.1015 88.4453 74.6921 88.5648 74.2637C88.577 74.2197 88.5893 74.1758 88.6019 74.1305C88.7193 73.6935 88.7665 73.2665 88.7722 72.8151C88.7748 72.7475 88.7748 72.7475 88.7774 72.6785C88.7818 72.2864 88.6755 71.9842 88.4147 71.6878C87.9354 71.3389 87.4173 71.2088 86.836 71.1462C86.7659 71.1387 86.7659 71.1387 86.6945 71.131C86.2147 71.0825 85.7382 71.0716 85.2563 71.0738C85.2084 71.0738 85.1605 71.0739 85.1111 71.0739C84.1884 71.076 83.2691 71.1224 82.348 71.1738C76.6939 71.4893 76.6939 71.4893 73.9935 71.3294C73.9499 71.3268 73.9062 71.3242 73.8612 71.3216C69.8932 71.0793 65.7957 70.1395 62.1972 68.4248C62.1146 68.3874 62.0319 68.3504 61.949 68.3136C61.9058 68.2944 61.8627 68.2751 61.8182 68.2553C61.699 68.2031 61.5792 68.1521 61.4593 68.1015C60.8165 67.8291 60.2019 67.5138 59.589 67.18C59.5452 67.1562 59.5014 67.1325 59.4563 67.108C59.0176 66.8694 58.592 66.6262 58.1881 66.3311C58.0331 66.2211 57.8729 66.123 57.7107 66.024C57.4691 65.8721 57.2739 65.7133 57.0801 65.5047C56.9744 65.395 56.8617 65.3016 56.7437 65.2053C56.2199 64.7537 55.9061 64.19 55.8545 63.5047C55.7716 61.8391 55.9067 60.2617 57.0354 58.9542C57.2838 58.6872 57.2838 58.6872 57.3957 58.5847C57.4349 58.5847 57.474 58.5847 57.5143 58.5847C57.5339 58.526 57.5534 58.4673 57.5736 58.4068C57.7592 58.252 57.9642 58.1241 58.1664 57.9919C58.2111 57.9617 58.2559 57.9315 58.302 57.9004C61.9228 55.5799 67.5322 56.0978 71.5235 56.8935C71.6867 56.9259 71.85 56.9575 72.0133 56.989C72.7363 57.1298 73.4561 57.2835 74.1751 57.4436C74.2196 57.4535 74.2642 57.4634 74.3101 57.4736C74.7905 57.5808 75.2706 57.6891 75.7503 57.7992C79.0151 58.76 79.0151 58.76 82.2072 58.329C82.4781 58.1393 82.6442 57.9023 82.7074 57.577C82.8008 56.2369 82.1826 54.9303 81.3676 53.8978C81.2847 53.7832 81.2847 53.7832 81.2847 53.6646C81.2456 53.6646 81.2065 53.6646 81.1661 53.6646C81.0768 53.5651 81.0768 53.5651 80.9809 53.4349C80.949 53.3923 80.917 53.3496 80.8841 53.3057C80.8105 53.1904 80.8105 53.1904 80.8105 53.0718C80.7714 53.0718 80.7322 53.0718 80.6919 53.0718C80.4548 52.8068 80.4548 52.8068 80.4548 52.6569C80.4157 52.6569 80.3766 52.6569 80.3363 52.6569C80.2451 52.555 80.158 52.4493 80.0732 52.342C79.8945 52.1136 79.8945 52.1136 79.6969 51.9023C79.6249 51.827 79.6249 51.827 79.6249 51.7085C79.5662 51.6889 79.5076 51.6693 79.4471 51.6492C79.3515 51.5542 79.3515 51.5542 79.2507 51.4343C79.2148 51.3918 79.1789 51.3493 79.1419 51.3056C79.1057 51.2625 79.0695 51.2194 79.0321 51.175C78.9971 51.1355 78.9621 51.0961 78.9261 51.0555C78.8938 51.0191 78.8616 50.9827 78.8284 50.9453C78.7991 50.9124 78.7698 50.8795 78.7397 50.8457C78.6765 50.76 78.6765 50.76 78.6765 50.6415C78.6374 50.6415 78.5982 50.6415 78.5579 50.6415C78.4614 50.5287 78.3721 50.4158 78.2838 50.2969C78.2572 50.2616 78.2306 50.2262 78.2033 50.1898C78.149 50.1175 78.0949 50.045 78.041 49.9724C77.9761 49.8856 77.91 49.7997 77.8436 49.7141C76.8594 48.4202 76.2551 46.9976 76.1868 45.3657C76.1811 45.2947 76.1811 45.2947 76.1752 45.2222C76.1329 44.4486 76.5389 43.6693 77.0352 43.1021C77.9624 42.1255 79.0406 41.5016 80.3955 41.3941C80.4664 41.3878 80.4664 41.3878 80.5386 41.3814C81.4829 41.3385 82.4011 41.8194 83.1816 42.3018C83.2231 42.3275 83.2647 42.3531 83.3075 42.3795C83.4062 42.4427 83.5018 42.5107 83.5965 42.5797C83.5965 42.6188 83.5965 42.6579 83.5965 42.6982C83.6311 42.714 83.6657 42.7298 83.7013 42.746C84.1268 42.9736 84.4733 43.3864 84.8117 43.7245C84.8548 43.7668 84.8979 43.8092 84.9423 43.8529C85.0033 43.9137 85.0033 43.9137 85.0655 43.9757C85.1022 44.0122 85.1389 44.0487 85.1768 44.0862C85.2563 44.1802 85.2563 44.1802 85.2563 44.2987C85.2903 44.3127 85.3243 44.3267 85.3594 44.3411C85.5235 44.4344 85.6187 44.5446 85.7416 44.6877C86.6913 45.764 87.8601 46.7501 89.3465 46.907C89.8947 46.9365 90.4336 46.9624 90.9099 46.6624C91.2115 46.3321 91.258 46.019 91.2521 45.5822C91.2385 45.3376 91.1936 45.107 91.1359 44.8693C91.1169 44.7905 91.1169 44.7905 91.0975 44.71C90.9027 43.9551 90.5929 43.2392 90.2949 42.5204C90.241 42.3887 90.1871 42.2571 90.1333 42.1254C89.9402 41.6559 89.7455 41.1884 89.531 40.7282C89.3303 40.2963 89.1446 39.8588 88.9612 39.4194C88.9358 39.3587 88.9358 39.3587 88.9099 39.2967C88.356 37.9699 87.8862 36.6288 87.5392 35.232C87.5121 35.1234 87.4838 35.0151 87.4554 34.9069C86.7683 32.1724 87.2415 29.163 88.6345 26.7339C88.7935 26.4688 88.9776 26.2244 89.1686 25.9819C89.2107 25.9277 89.2529 25.8735 89.2962 25.8177C90.408 24.4207 91.9173 23.4391 93.6145 22.8994C93.6591 22.8852 93.7037 22.8709 93.7496 22.8562C94.1002 22.747 94.4499 22.6644 94.8112 22.5994C94.8945 22.5843 94.8945 22.5843 94.9796 22.569C95.395 22.4974 95.8103 22.4473 96.2301 22.4104C96.3111 22.4033 96.3111 22.4033 96.3936 22.396C99.2812 22.1696 102.037 23.1181 104.233 24.9705C104.267 24.9995 104.302 25.0286 104.338 25.0585C104.552 25.2412 104.738 25.4334 104.916 25.6507C104.993 25.7413 105.078 25.8248 105.163 25.9078C105.292 26.0412 105.292 26.0412 105.351 26.219C105.391 26.219 105.43 26.219 105.47 26.219C105.547 26.3047 105.547 26.3047 105.634 26.4253C105.665 26.4695 105.697 26.5137 105.73 26.5592C105.764 26.6071 105.798 26.655 105.833 26.7043C105.868 26.753 105.903 26.8016 105.938 26.8518C106.216 27.2433 106.473 27.6423 106.715 28.0566C106.746 28.1079 106.777 28.1592 106.809 28.212C107.058 28.6275 107.266 29.047 107.452 29.4941C107.48 29.5604 107.508 29.6268 107.536 29.6951C107.72 30.1406 107.888 30.5897 108.041 31.0464C108.059 31.0988 108.076 31.1512 108.095 31.2052C108.396 32.1345 108.61 33.0773 108.771 34.04C108.78 34.0924 108.789 34.1447 108.798 34.1987C109.696 39.5281 107.802 44.6736 105.26 50.5523C105.098 50.9145 104.941 51.2788 104.784 51.6432C104.486 52.3339 104.183 53.022 103.877 53.7091C103.837 53.7994 103.797 53.8897 103.756 53.9801C103.597 54.3379 103.438 54.6958 103.278 55.0533C102.656 56.4432 102.037 57.8372 101.55 59.2812C101.534 59.3288 101.518 59.3764 101.502 59.4254C101.356 59.8723 101.245 60.3283 101.239 60.8002C101.237 60.8871 101.237 60.8871 101.234 60.9757C101.269 61.1788 101.335 61.2481 101.498 61.3707C101.871 61.3897 102.084 61.2712 102.364 61.0331C104.057 59.4062 105.093 57.0108 106.153 54.949C106.316 54.632 106.481 54.316 106.649 54.0017C107.036 53.2788 107.387 52.5392 107.741 51.7998C107.834 51.6058 107.927 51.412 108.02 51.2183C108.301 50.6353 108.574 50.0499 108.837 49.4587C108.968 49.1674 109.104 48.8806 109.249 48.5964C109.472 48.1591 109.68 47.7152 109.886 47.27C109.911 47.216 109.911 47.216 109.937 47.1608C110.159 46.6802 110.379 46.1986 110.59 45.7129C110.683 45.5013 110.781 45.294 110.885 45.0879C111.064 44.7323 111.231 44.3713 111.398 44.0098C111.432 43.9365 111.466 43.8633 111.5 43.7902C111.57 43.6389 111.64 43.4876 111.71 43.3363C111.869 42.9926 112.028 42.649 112.187 42.3055C112.218 42.2382 112.249 42.1709 112.282 42.1016C112.561 41.5004 112.843 40.9008 113.126 40.3013C113.384 39.7557 113.638 39.209 113.887 38.6599C114.076 38.2459 114.27 37.8366 114.477 37.4315C114.656 37.0775 114.82 36.7168 114.984 36.3555C115.222 35.8322 115.469 35.315 115.73 34.803C115.819 34.627 115.907 34.4501 115.996 34.2734C116.035 34.1955 116.074 34.1176 116.112 34.0397C116.213 33.8389 116.313 33.6378 116.413 33.4367C117.166 31.9233 117.166 31.9233 117.518 31.2754C117.638 31.0506 117.75 30.8229 117.863 30.5944C118.033 30.2492 118.217 29.9154 118.414 29.5844C118.612 29.2499 118.796 28.9076 118.972 28.5614C119.261 27.9975 119.579 27.4532 119.908 26.9118C119.929 26.8769 119.95 26.8419 119.972 26.8059C120.404 26.0948 120.86 25.4045 121.356 24.7371C121.399 24.6788 121.441 24.6205 121.485 24.5604C121.756 24.1946 122.045 23.8537 122.359 23.5228C122.399 23.4799 122.44 23.437 122.481 23.3928C123.006 22.841 123.544 22.3033 124.083 21.7658C124.233 21.6162 124.382 21.4664 124.532 21.3165C124.649 21.1989 124.767 21.0815 124.884 20.964C124.966 20.8825 125.048 20.8008 125.129 20.7191C125.391 20.4585 125.655 20.2058 125.936 19.9666C126.045 19.8716 126.146 19.7717 126.247 19.6688C126.828 19.08 126.828 19.08 127.106 18.9871C127.122 18.9539 127.137 18.9206 127.152 18.8864C127.263 18.6785 127.438 18.5539 127.618 18.4054C127.693 18.3424 127.768 18.2794 127.843 18.2163C127.88 18.1859 127.916 18.1556 127.953 18.1243C128.12 17.9835 128.282 17.8367 128.443 17.6895C128.529 17.6237 128.529 17.6237 128.648 17.6237C128.667 17.565 128.687 17.5064 128.707 17.4459C128.836 17.3359 128.965 17.2327 129.1 17.131C129.175 17.0729 129.251 17.0147 129.327 16.9564C129.363 16.9285 129.4 16.9006 129.437 16.8718C129.558 16.7771 129.674 16.6773 129.789 16.5752C129.952 16.4382 129.952 16.4382 130.07 16.4382C130.07 16.399 130.07 16.3599 130.07 16.3196C130.211 16.2048 130.353 16.0966 130.5 15.9899C130.587 15.9259 130.674 15.8619 130.761 15.7979C130.826 15.7502 130.826 15.7502 130.893 15.7014C131.008 15.6165 131.121 15.5302 131.234 15.4427C131.266 15.418 131.298 15.3932 131.331 15.3677C131.418 15.3008 131.504 15.2336 131.59 15.1665C131.73 15.0748 131.73 15.0748 131.908 15.0748C131.908 15.0357 131.908 14.9965 131.908 14.9562C132.047 14.8607 132.186 14.7724 132.33 14.6858C132.418 14.6324 132.505 14.579 132.592 14.5255C132.637 14.4985 132.681 14.4715 132.727 14.4437C132.883 14.3471 133.036 14.247 133.19 14.1461C134.124 13.5336 134.124 13.5336 134.457 13.5336C134.457 13.4944 134.457 13.4553 134.457 13.415C135.056 13.1522 135.664 12.9227 136.283 12.7111C136.35 12.6878 136.416 12.6645 136.484 12.6405C136.918 12.4948 137.32 12.423 137.776 12.4073C137.849 12.404 137.923 12.4007 137.998 12.3973C138.364 12.3949 138.672 12.4153 139.021 12.5258C139.063 12.5374 139.105 12.5489 139.148 12.5608C139.51 12.6675 139.844 12.8321 140.148 13.0593C140.148 13.0985 140.148 13.1376 140.148 13.1779C140.2 13.2009 140.2 13.2009 140.254 13.2244C140.954 13.6099 141.325 14.5991 141.57 15.3119C141.584 15.3506 141.597 15.3893 141.61 15.4291C142.117 16.9527 142.177 18.5955 142.178 20.1875C142.178 20.2495 142.178 20.3114 142.178 20.3753C142.177 21.6573 142.107 22.9277 141.985 24.2036C141.981 24.2474 141.977 24.2911 141.973 24.3363C141.91 24.9852 141.833 25.6319 141.748 26.2783C141.737 26.3651 141.737 26.3651 141.725 26.4536C141.674 26.8457 141.621 27.2377 141.568 27.6295C141.55 27.7591 141.532 27.8886 141.515 28.0182C141.209 30.2789 140.502 32.4476 139.459 34.4783C139.347 34.6967 139.238 34.9167 139.13 35.1373C138.721 35.973 138.288 36.7857 137.802 37.5805C137.725 37.7056 137.65 37.8313 137.575 37.9574C137.075 38.8028 136.547 39.6314 135.998 40.4457C135.92 40.563 135.842 40.6803 135.765 40.7976C135.403 41.34 135.03 41.874 134.653 42.4062C134.573 42.5181 134.573 42.5181 134.516 42.639C134.477 42.639 134.438 42.639 134.398 42.639C134.382 42.6827 134.366 42.7264 134.349 42.7715C134.282 42.9296 134.207 43.0485 134.105 43.1857C134.07 43.2319 134.036 43.2781 134.001 43.3257C133.964 43.3742 133.928 43.4226 133.89 43.4725C133.834 43.548 133.834 43.548 133.776 43.6249C133.668 43.7707 133.558 43.9162 133.449 44.0616C133.398 44.1299 133.347 44.1982 133.297 44.2665C132.921 44.7708 132.539 45.2708 132.149 45.7642C132.12 45.801 132.091 45.8378 132.061 45.8756C132.005 45.946 131.949 46.0162 131.893 46.0863C131.767 46.2453 131.649 46.4042 131.541 46.5756C131.505 46.6263 131.47 46.6769 131.434 46.7291C131.395 46.7291 131.355 46.7291 131.315 46.7291C131.302 46.7702 131.289 46.8113 131.276 46.8537C131.177 47.0679 131.037 47.2288 130.882 47.4034C130.699 47.6136 130.52 47.8208 130.363 48.0518C130.325 48.1043 130.287 48.1569 130.248 48.2111C130.209 48.2111 130.17 48.2111 130.13 48.2111C130.116 48.2421 130.103 48.2731 130.089 48.3051C129.983 48.5001 129.846 48.668 129.707 48.8409C129.678 48.8773 129.649 48.9137 129.619 48.9511C129.561 49.0249 129.502 49.0987 129.443 49.1724C129.366 49.269 129.29 49.3666 129.215 49.4642C129.173 49.5177 129.131 49.5712 129.089 49.6263C129.052 49.6739 129.015 49.7214 128.977 49.7703C128.947 49.8035 128.916 49.8367 128.885 49.8708C128.846 49.8708 128.807 49.8708 128.766 49.8708C128.753 49.9019 128.741 49.9329 128.728 49.9649C128.616 50.1653 128.468 50.3281 128.318 50.5007C128.106 50.7338 128.106 50.7338 127.936 50.9971C127.897 50.9971 127.858 50.9971 127.818 50.9971C127.799 51.0338 127.781 51.0705 127.762 51.1083C127.721 51.1898 127.681 51.2713 127.64 51.3528C127.601 51.3528 127.562 51.3528 127.521 51.3528C127.499 51.4018 127.499 51.4018 127.477 51.4519C127.388 51.6167 127.282 51.7548 127.166 51.9011C127.124 51.954 127.083 52.0069 127.04 52.0613C126.985 52.1214 126.985 52.1214 126.929 52.1827C126.889 52.1827 126.85 52.1827 126.81 52.1827C126.793 52.2181 126.776 52.2536 126.758 52.2901C126.691 52.4198 126.691 52.4198 126.573 52.5976C126.534 52.5976 126.495 52.5976 126.454 52.5976C126.44 52.6301 126.426 52.6626 126.411 52.696C126.318 52.8672 126.204 53.0069 126.08 53.1571C126.035 53.212 125.99 53.2669 125.944 53.3235C125.804 53.4846 125.657 53.6334 125.506 53.7832C125.411 53.885 125.317 53.9875 125.224 54.0907C125.178 54.1416 125.132 54.1926 125.084 54.2451C124.971 54.3671 124.971 54.3671 124.913 54.4945C124.874 54.4945 124.835 54.4945 124.795 54.4945C124.781 54.5268 124.768 54.5592 124.754 54.5925C124.652 54.774 124.522 54.9096 124.38 55.0614C124.227 55.2248 124.089 55.3754 123.965 55.5615C123.926 55.5615 123.886 55.5615 123.846 55.5615C123.833 55.5936 123.82 55.6257 123.806 55.6588C123.703 55.8431 123.564 55.987 123.42 56.1395C123.36 56.2036 123.301 56.2677 123.241 56.3319C123.198 56.3782 123.198 56.3782 123.154 56.4254C123.06 56.527 122.969 56.631 122.879 56.736C122.641 57.0105 122.391 57.2737 122.143 57.5387C121.79 57.9159 121.443 58.2977 121.105 58.6884C120.907 58.9154 120.702 59.1353 120.497 59.3553C120.164 59.7123 119.836 60.0712 119.53 60.4519C119.487 60.5008 119.444 60.5497 119.4 60.6001C119.361 60.6001 119.322 60.6001 119.282 60.6001C119.269 60.6314 119.257 60.6626 119.244 60.6948C119.129 60.8967 118.975 61.0513 118.815 61.2188C118.564 61.4835 118.564 61.4835 118.329 61.7618C118.202 61.9202 118.063 62.058 117.918 62.2006C117.788 62.3378 117.658 62.4767 117.529 62.6156C117.475 62.6739 117.475 62.6739 117.42 62.7335C116.493 63.7248 116.493 63.7248 115.589 64.7373C115.326 65.0388 115.05 65.3277 114.774 65.6177C114.545 65.8603 114.321 66.1066 114.102 66.359C113.966 66.5142 113.827 66.6655 113.687 66.8169C113.487 67.0343 113.288 67.2525 113.091 67.4726C112.882 67.7056 112.67 67.9359 112.457 68.1654C112.233 68.4079 112.011 68.6521 111.795 68.9023C111.677 69.0375 111.556 69.17 111.435 69.3028C111.249 69.5081 111.071 69.7174 110.898 69.9327C110.669 70.2156 110.427 70.4836 110.181 70.7512C109.99 70.9638 109.812 71.1852 109.632 71.4074C109.504 71.5634 109.37 71.7135 109.234 71.8629C109.005 72.1144 108.789 72.3741 108.575 72.6384C108.422 72.8264 108.265 73.0117 108.108 73.1967C107.817 73.5391 107.532 73.8854 107.248 74.234C107.19 74.3053 107.132 74.3767 107.073 74.448C106.324 75.3636 105.604 76.2988 104.906 77.2546C104.83 77.3588 104.754 77.4628 104.677 77.5665C104.441 77.8878 104.216 78.215 103.997 78.5486C103.892 78.7055 103.784 78.8594 103.675 79.0133C103.441 79.3462 103.229 79.6904 103.021 80.0395C102.982 80.1044 102.944 80.1692 102.904 80.236C102.228 81.376 101.605 82.5499 101.261 83.837C101.24 83.9109 101.219 83.9848 101.197 84.0609C101.131 84.3301 101.122 84.5907 101.124 84.867C101.125 84.9165 101.125 84.9661 101.125 85.0172C101.132 85.3788 101.166 85.6987 101.321 86.0303C101.339 86.0712 101.357 86.1121 101.375 86.1542C101.641 86.657 102.177 86.9801 102.7 87.1681C103.487 87.3999 104.259 87.464 105.074 87.4639C105.205 87.4641 105.336 87.4652 105.467 87.4663C106.05 87.4686 106.612 87.4212 107.189 87.3344C107.229 87.3285 107.268 87.3225 107.309 87.3164C108.905 87.0745 110.343 86.4075 111.609 85.4211C111.753 85.319 111.753 85.319 111.872 85.319C111.872 85.2798 111.872 85.2407 111.872 85.2004C112.137 84.9633 112.137 84.9633 112.287 84.9633C112.307 84.9046 112.326 84.8459 112.346 84.7855C112.437 84.6961 112.437 84.6961 112.554 84.6002C112.998 84.2215 113.386 83.8106 113.751 83.3547C113.888 83.184 114.03 83.018 114.173 82.8515C114.541 82.41 114.867 81.9402 115.192 81.4659C115.217 81.4293 115.242 81.3927 115.267 81.355C116.44 79.6346 117.505 77.8389 118.58 76.0572C119.035 75.3037 119.492 74.5523 119.976 73.817C120.057 73.6927 120.138 73.5678 120.218 73.4428C120.526 72.9628 120.841 72.4895 121.168 72.0223C121.243 71.9144 121.317 71.8059 121.391 71.6971C121.661 71.2995 121.936 70.908 122.227 70.5254C122.649 69.9704 123.043 69.3959 123.439 68.822C123.549 68.6629 123.66 68.5044 123.771 68.3461C123.916 68.1393 124.059 67.9314 124.198 67.7209C124.356 67.4834 124.514 67.2463 124.672 67.0095C124.857 66.7318 125.039 66.452 125.219 66.1708C125.363 65.9457 125.509 65.7216 125.655 65.4982C126.085 64.8439 126.505 64.1863 126.909 63.5161C127.047 63.2882 127.186 63.0612 127.325 62.8342C127.352 62.7892 127.38 62.7442 127.408 62.6979C127.561 62.4476 127.715 62.1979 127.87 61.9487C128.138 61.5131 128.397 61.0721 128.656 60.6314C128.903 60.2129 129.151 59.7952 129.399 59.3776C129.472 59.2544 129.545 59.1312 129.618 59.008C129.837 58.6401 130.056 58.2725 130.276 57.9058C130.447 57.6208 130.616 57.3349 130.786 57.0491C130.849 56.9429 130.912 56.8368 130.975 56.7307C131.213 56.3301 131.213 56.3301 131.445 55.9262C131.571 55.7068 131.706 55.4936 131.841 55.2799C132.008 55.0159 132.17 54.7525 132.315 54.476C132.48 54.1655 132.667 53.8716 132.856 53.5757C133.073 53.2359 133.281 52.8965 133.469 52.54C134.049 51.4827 134.708 50.4611 135.359 49.4464C135.5 49.2215 135.638 48.994 135.776 48.7668C136.213 48.048 136.673 47.3444 137.142 46.6462C137.323 46.3762 137.495 46.1016 137.665 45.8251C137.87 45.4942 138.086 45.1778 138.318 44.8658C138.467 44.6605 138.6 44.4465 138.735 44.2318C139.266 43.4003 139.862 42.606 140.444 41.8091C140.523 41.7004 140.602 41.5917 140.681 41.483C140.74 41.4018 140.74 41.4018 140.801 41.3189C140.877 41.2142 140.953 41.1093 141.028 41.0044C141.381 40.5172 141.741 40.0363 142.104 39.5565C142.161 39.4804 142.161 39.4804 142.22 39.4028C143.054 38.2995 143.054 38.2995 143.461 37.8122C143.559 37.6928 143.653 37.5725 143.745 37.4496C143.772 37.4137 143.799 37.3778 143.827 37.3409C143.88 37.2707 143.932 37.2004 143.984 37.1297C144.046 37.0473 144.112 36.9679 144.178 36.889C144.218 36.889 144.257 36.889 144.297 36.889C144.313 36.8542 144.33 36.8193 144.346 36.7834C144.413 36.6567 144.485 36.5551 144.575 36.4442C144.606 36.4055 144.638 36.3668 144.67 36.3269C144.703 36.2862 144.737 36.2455 144.771 36.2036C144.823 36.1403 144.823 36.1403 144.876 36.0756C145.123 35.7744 145.381 35.4851 145.646 35.1991C145.771 35.0601 145.887 34.9176 146.001 34.7698C146.277 34.4188 146.584 34.0993 146.89 33.7751C147.061 33.5938 147.226 33.4085 147.388 33.2196C147.574 33.0093 147.765 32.8051 147.957 32.6005C148.087 32.4606 148.212 32.3213 148.331 32.1716C148.459 32.0127 148.597 31.8746 148.743 31.7318C148.827 31.6479 148.911 31.564 148.995 31.4799C149.182 31.2922 149.37 31.1045 149.558 30.9168C149.624 30.8509 149.624 30.8509 149.691 30.7838C149.761 30.7132 149.832 30.6427 149.903 30.5725C150.034 30.4431 150.157 30.3117 150.273 30.1684C150.396 30.0229 150.522 29.8974 150.668 29.7752C151.002 29.4867 151.308 29.1707 151.618 28.8569C152.313 28.1517 152.313 28.1517 152.68 27.8411C152.785 27.753 152.785 27.753 152.914 27.6157C153.011 27.5231 153.011 27.5231 153.129 27.5231C153.129 27.484 153.129 27.4449 153.129 27.4046C153.206 27.3272 153.206 27.3272 153.318 27.2341C153.546 27.0414 153.764 26.8413 153.981 26.6377C154.259 26.3791 154.544 26.1369 154.843 25.9039C154.949 25.8185 155.044 25.7317 155.137 25.6336C155.257 25.5144 155.353 25.463 155.5 25.3891C155.52 25.3304 155.54 25.2717 155.56 25.2113C155.687 25.0943 155.687 25.0943 155.845 24.9705C155.897 24.9294 155.949 24.8884 156.002 24.8461C156.129 24.7543 156.247 24.6826 156.39 24.6185C156.39 24.5794 156.39 24.5403 156.39 24.4999C156.49 24.4096 156.49 24.4096 156.634 24.2999C156.94 24.0619 157.234 23.8127 157.526 23.5589C158.015 23.1366 158.015 23.1366 158.168 23.1366C158.168 23.0974 158.168 23.0583 158.168 23.018C158.373 22.8402 158.373 22.8402 158.524 22.8402C158.524 22.801 158.524 22.7619 158.524 22.7216C158.647 22.6156 158.772 22.5161 158.902 22.4178C158.978 22.3593 159.054 22.3007 159.13 22.2421C159.168 22.213 159.206 22.184 159.245 22.1541C159.445 21.999 159.639 21.8373 159.834 21.6761C159.946 21.5953 159.946 21.5953 160.065 21.5953C160.065 21.5562 160.065 21.5171 160.065 21.4768C160.212 21.4181 160.212 21.4181 160.361 21.3582C160.361 21.3191 160.361 21.28 160.361 21.2397C160.446 21.1654 160.446 21.1654 160.564 21.0813C160.748 20.9484 160.928 20.8129 161.105 20.6719C161.173 20.6183 161.173 20.6183 161.242 20.5635C161.335 20.49 161.428 20.4162 161.52 20.3422C161.565 20.3067 161.61 20.2713 161.657 20.2347C161.717 20.1869 161.717 20.1869 161.778 20.1381C161.913 20.0468 162.046 19.9907 162.199 19.9356C162.199 19.8964 162.199 19.8573 162.199 19.817C162.314 19.7225 162.314 19.7225 162.477 19.6095C162.739 19.4234 162.997 19.2327 163.251 19.0353C164.004 18.4536 164.004 18.4536 164.155 18.4536C164.155 18.4145 164.155 18.3754 164.155 18.3351C164.268 18.2459 164.381 18.1642 164.5 18.0831C164.576 18.0295 164.653 17.9758 164.73 17.922C164.771 17.893 164.812 17.864 164.855 17.8342C165.082 17.6734 165.306 17.5076 165.53 17.3422C165.576 17.3076 165.623 17.2731 165.672 17.2375C165.924 17.0517 166.175 16.8649 166.425 16.6769C166.476 16.6388 166.527 16.6007 166.58 16.5614C166.678 16.4881 166.776 16.4145 166.873 16.3406C166.94 16.2911 166.94 16.2911 167.008 16.2407C167.046 16.2115 167.085 16.1823 167.125 16.1522C167.242 16.0797 167.34 16.0487 167.475 16.0232C167.475 15.9841 167.475 15.945 167.475 15.9047C167.562 15.8361 167.562 15.8361 167.689 15.7565C167.933 15.5997 168.17 15.4362 168.405 15.2674C168.439 15.2424 168.474 15.2175 168.51 15.1917C168.696 15.0588 168.881 14.925 169.065 14.7904C169.102 14.7636 169.139 14.7367 169.178 14.7091C169.248 14.6578 169.319 14.6063 169.389 14.5545C169.574 14.4208 169.748 14.3189 169.964 14.2449C169.964 14.2058 169.964 14.1666 169.964 14.1263C170.064 14.0499 170.064 14.0499 170.194 13.9707C170.258 13.9311 170.258 13.9311 170.323 13.8906C170.438 13.8299 170.438 13.8299 170.557 13.8299C170.557 13.7908 170.557 13.7517 170.557 13.7114C170.671 13.6299 170.671 13.6299 170.831 13.5336C171.108 13.3631 171.373 13.183 171.635 12.9926C172.447 12.4073 172.447 12.4073 172.632 12.4073C172.651 12.3486 172.671 12.2899 172.691 12.2294C172.822 12.1343 172.822 12.1343 172.984 12.0405C173.063 11.9934 173.063 11.9934 173.145 11.9453C173.284 11.8738 173.284 11.8738 173.402 11.8738C173.402 11.8347 173.402 11.7955 173.402 11.7552C173.524 11.6683 173.646 11.5889 173.773 11.5107C173.849 11.4626 173.926 11.4144 174.003 11.3662C174.041 11.342 174.08 11.3178 174.12 11.2928C174.502 11.0516 174.875 10.797 175.244 10.5363C175.552 10.3192 175.87 10.1186 176.188 9.91761C176.326 9.83023 176.463 9.74247 176.6 9.65456C176.635 9.632 176.67 9.60943 176.706 9.58618C176.932 9.44102 177.155 9.29302 177.378 9.14329C177.631 8.97396 177.886 8.80825 178.145 8.64684C178.207 8.60779 178.269 8.56875 178.334 8.52852C178.5 8.43566 178.5 8.43566 178.637 8.40394C178.67 8.39485 178.703 8.38575 178.737 8.37639C178.757 8.3177 178.777 8.25901 178.797 8.19855C178.942 8.1081 179.086 8.02632 179.238 7.94662C179.576 7.76301 179.894 7.56912 180.205 7.3425C180.417 7.19458 180.644 7.07532 180.871 6.95372C181.211 6.76226 181.545 6.56221 181.879 6.36094C181.978 6.30164 182.077 6.24236 182.175 6.18311C182.224 6.15384 182.273 6.12457 182.323 6.09442C182.424 6.03428 182.524 5.97423 182.624 5.91427C182.854 5.77673 183.083 5.63829 183.309 5.494C183.496 5.37677 183.686 5.27675 183.884 5.18048C184.089 5.07851 184.288 4.96726 184.488 4.85723C184.738 4.72055 184.989 4.58594 185.239 4.45132C185.369 4.38168 185.498 4.31176 185.627 4.24153C186.055 4.00872 186.488 3.78695 186.926 3.5708C187.042 3.51288 187.157 3.45381 187.272 3.3945C187.705 3.17302 188.133 2.97361 188.591 2.81052C188.756 2.7499 188.756 2.7499 188.898 2.65886C189.085 2.54753 189.28 2.47065 189.481 2.39303C189.73 2.29595 189.977 2.19787 190.219 2.08553C190.987 1.73727 190.987 1.73727 191.364 1.73727C191.364 1.69815 191.364 1.65903 191.364 1.61872C192.23 1.30936 193.107 1.04765 193.994 0.803647C194.044 0.789904 194.093 0.776161 194.144 0.762002C195.061 0.508962 195.979 0.268686 196.925 0.155296C197.034 0.141558 197.143 0.127744 197.252 0.113848C197.298 0.108217 197.344 0.102586 197.392 0.0967851C197.529 0.0792835 197.529 0.0792835 197.664 0.0472462C197.836 0.0162082 197.996 0.00984646 198.172 0.00866442Z" fill="#272727"/>
</svg>
